<?xml version="1.0" standalone="no"?>
<!DOCTYPE svg PUBLIC "-//W3C//DTD SVG 1.1//EN" "http://www.w3.org/Graphics/SVG/1.1/DTD/svg11.dtd" >
<svg xmlns="http://www.w3.org/2000/svg">
<metadata>
<json>
<![CDATA[
{
	"fontFamily": "bi-icon",
	"majorVersion": 1,
	"minorVersion": 0,
	"version": "Version 1.0",
	"fontId": "bi-icon",
	"psName": "bi-icon",
	"subFamily": "Regular",
	"fullName": "bi-icon",
	"description": "Font generated by IcoMoon."
}
]]>
</json>
</metadata>
<defs>
<font id="bi-icon" horiz-adv-x="1024">
<font-face units-per-em="1024" ascent="960" descent="-64" />
<missing-glyph horiz-adv-x="1024" />
<glyph unicode="&#x20;" horiz-adv-x="512" d="" />
<glyph unicode="&#xe900;" glyph-name="about" data-tags="about" d="M460.8 668.672c-0.427 42.155 34.645 76.8 77.653 77.141 43.691 0 77.995-33.621 77.995-76.8 0.341-42.155-33.963-76.8-76.544-77.483-43.008-0.427-78.421 34.304-79.104 77.141zM650.411 230.4c-1.109-6.315-5.035-13.056-9.813-18.005-28.501-28.672-62.805-45.653-104.021-46.421-18.432-0.341-37.547-1.024-55.296 2.816-46.848 9.557-73.643 48.896-66.048 94.891 9.045 55.552 19.115 110.421 28.928 165.632 2.901 16.64 6.485 33.28 8.704 49.92 1.109 6.059 0.341 12.715-0.683 18.432-2.219 11.349-8.021 16.299-19.2 18.091-6.144 0.683-12.288 0.341-18.091 1.792-7.253 2.048-15.531 4.523-21.333 8.789-10.069 7.424-7.936 21.931 3.669 26.88 5.803 2.816 12.971 4.267 19.541 4.267 25.685 0.341 51.627 0 76.971 0h76.971c18.432 0 27.819-9.216 30.379-27.221 2.56-18.091-4.011-35.072-7.253-52.395-9.387-52.053-19.541-103.68-28.928-155.392-3.243-17.664-6.485-35.413-9.387-53.419-0.853-5.376-0.512-11.349-0.085-16.725 3.243-23.040 16.64-31.488 38.997-25.856 6.827 1.792 12.971 5.632 19.541 8.875 6.144 2.816 12.288 6.741 18.773 9.216 11.179 4.267 20.139-2.816 17.664-14.165zM512.171 955.392c-280.149 0-508.16-223.488-508.16-498.176 0-127.573 49.237-248.832 138.667-341.845-1.963-3.157-5.205-7.339-8.875-11.947l-54.869-71.851c-19.627-25.259-11.691-47.787-7.509-56.235 11.52-23.125 37.717-34.475 80.128-34.731h4.096c41.301 0 78.677 4.437 111.104 13.056l8.448 2.219c6.229 1.536 12.373 3.072 19.285 5.205 19.712 6.485 37.973 13.739 57.771 22.869 0 0 0.427 0.171 1.28 0.427 50.859-16.555 104.192-25.003 158.549-25.003 279.979 0 507.819 223.317 507.819 497.835 0.085 274.688-227.755 498.176-507.733 498.176zM200.96 53.589c8.704 10.923 17.749 23.125 23.808 40.107 6.059 19.968 4.608 40.277-4.267 58.624l-2.645 5.376-5.632 5.973c-79.957 78.763-124.075 183.040-124.075 293.547 0 229.12 190.208 415.403 424.021 415.403 233.643 0 423.595-186.368 423.595-415.403 0-228.864-190.037-415.061-423.595-415.061-48.213 0-95.403 7.936-140.203 23.467l-6.827 2.304-12.715-0.085c-15.36-1.28-28.672-4.864-38.059-10.24-14.933-6.741-29.952-12.629-45.739-17.835-4.779-1.365-9.557-2.645-14.507-3.84l-9.472-2.56c-19.285-5.12-41.557-8.363-66.304-9.557l22.613 29.781z" />
<glyph unicode="&#xe901;" glyph-name="addpeople" data-tags="addpeople" horiz-adv-x="832" d="M385.024 500.544c118.4 0 214.72 94.080 214.72 209.728s-96.32 209.728-214.72 209.728-214.72-94.080-214.72-209.728c0-115.648 96.32-209.728 214.72-209.728zM236.416 709.056c0 80.192 66.688 145.408 148.608 145.408s148.608-65.216 148.608-145.408-66.688-145.408-148.608-145.408c-81.92 0-148.608 65.216-148.608 145.408zM760.448 127.552h-56.832v56.896c0 17.344-14.208 31.552-31.616 31.552-17.344 0-31.552-14.208-31.552-31.552v-56.896h-56.832c-17.408 0-31.616-14.208-31.616-31.552s14.208-31.552 31.616-31.552h56.832v-56.896c0-17.344 14.208-31.552 31.552-31.552 17.408 0 31.616 14.208 31.616 31.552v56.896h56.832c17.344 0 31.552 14.208 31.552 31.552s-14.208 31.552-31.552 31.552zM214.528 407.808h306.944c39.424 0 74.688-19.712 94.336-52.736 11.072-17.856 16.64-37.952 16.64-59.648v-10.816c0-17.664 14.272-32.064 31.808-32.064 17.472 0 31.744 14.4 31.744 32.064v10.816c0 33.792-9.088 66.112-26.176 93.376-32.64 52.096-88.064 83.2-148.288 83.2h-307.008c-96.256 0-174.528-79.168-174.528-176.576v-191.36c0-17.664 14.272-32.064 31.808-32.064h414.016c17.472 0 31.744 14.4 31.744 32.064s-14.272 32.064-31.744 32.064h-382.272v159.296c0 61.952 49.792 112.384 110.976 112.384z" />
<glyph unicode="&#xe902;" glyph-name="download" data-tags="download" horiz-adv-x="1317" d="M1113.381 648.411c-28.526 126.318-166.912 210.432-315.904 173.714-55.808 45.787-123.246 69.998-195.438 69.998-144.238 0-267.776-93.111-296.887-222.501-132.827-14.409-232.009-116.224-232.009-239.689 0-133.559 117.979-242.249 262.949-242.249h199.899c12.873 0 24.942 6.437 31.598 16.75 7.022 10.971 7.022 24.649 0 35.621-6.656 10.459-18.798 16.823-32.037 16.823h-199.461c-106.13 0-189.221 75.995-189.221 172.91 0 96.987 83.090 172.983 189.294 172.983 19.090 0 34.889 13.458 36.718 31.305 11.703 107.52 110.226 188.562 229.157 188.562 62.098 0 115.931-21.138 160.037-62.83 10.167-9.509 25.893-12.8 39.058-7.973 17.189 6.071 42.862 9.728 66.926 9.728 89.819 0 165.449-60.343 175.982-140.215 1.536-13.093 11.191-24.357 24.357-28.672 74.021-24.942 121.856-88.795 121.856-162.816 0-96.914-83.163-172.91-189.221-172.91h-199.68c-12.946 0-25.088-6.437-31.817-16.823-7.022-10.971-7.022-24.649 0-35.621 6.656-10.386 18.798-16.75 31.598-16.75h199.899c144.896 0 262.875 108.617 262.875 242.249 0 93.403-58.88 178.615-150.528 218.405zM801.134 198.071c0 0 0 0 0 0v0zM733.842 167.278l-28.453-33.792v230.034c0.219 13.605-6.802 26.185-18.139 33.061-11.337 7.022-26.185 6.949-37.376 0.073-11.41-6.949-18.359-19.529-18.213-32.987v-230.181l-28.526 33.938c-13.019 15.067-37.595 16.75-52.224 3.072-14.994-13.751-16.384-37.595-3.218-53.102l93.038-110.592c7.022-8.192 17.115-12.946 27.721-12.946 1.755 0 3.584 0.073 5.339 0.366 8.631 1.39 16.677 5.851 22.528 12.727l93.111 110.519c13.093 15.506 11.557 39.278-3.291 53.175-14.702 13.458-39.278 11.849-52.297-3.365z" />
<glyph unicode="&#xe903;" glyph-name="edit" data-tags="edit" d="M103.936 373.175c-1.39-3.584-2.194-7.095-2.487-10.825l-21.577-301.275c-0.731-10.679 3.145-21.211 10.825-28.965 7.022-7.022 16.311-10.825 26.185-10.825l303.689 21.797c3.803 0.219 7.461 1.097 13.531 3.73 2.706 1.317 5.047 2.779 7.387 4.681l514.706 514.048c40.667 40.741 40.667 107.081 0 147.822l-184.393 184.32c-39.424 39.351-108.398 39.351-147.822 0l-512.805-513.17c-2.56-2.779-4.681-5.925-5.559-8.046zM760.905 475.282l-342.747-342.674-43.227 43.154 342.821 342.747 43.154-43.227zM285.038 265.655l342.821 342.747 37.449-37.449-342.821-342.747-37.449 37.449zM190.903 359.717l342.821 342.747 41.618-41.618-342.821-342.674-41.618 41.545zM334.482 111.25l-93.769-6.656c-0.951 1.17-1.902 2.267-2.999 3.365l-72.85 72.777c-0.585 0.658-1.243 1.243-1.829 1.755l6.656 93.55 164.791-164.791zM903.753 618.057l-90.331-90.331-227.182 227.182 90.331 90.331c11.41 11.41 31.451 11.41 42.862 0l184.393-184.247c11.703-11.849 11.703-31.086-0.073-42.935z" />
<glyph unicode="&#xe904;" glyph-name="import" data-tags="import" horiz-adv-x="1170" d="M585.289 301.349c-8.923 0-17.408 3.291-23.845 9.289l-281.6 257.682c-10.459 9.509-13.824 23.406-8.923 36.133 8.265 21.285 38.766 28.891 56.32 12.946l223.232-203.922v486.766c0 18.578 15.506 33.792 34.597 33.792s34.597-15.214 34.597-33.792v-486.766l223.232 203.922c17.481 16.091 47.982 8.411 56.32-12.946 4.901-12.727 1.536-26.624-8.923-36.133l-281.161-257.755c-6.437-5.925-14.921-9.216-23.845-9.216zM1059.401 8.777h-948.59c-33.865 0-61.44 28.526-61.44 63.561v239.47c0 20.48 16.311 37.157 36.279 37.157s36.279-16.677 36.279-37.157v-228.864h926.501v228.864c0 20.48 16.311 37.157 36.279 37.157s36.279-16.677 36.279-37.157v-239.397c-0.073-35.109-27.648-63.634-61.586-63.634z" />
<glyph unicode="&#xe905;" glyph-name="move" data-tags="move" d="M362.715 691.858c12.507-3.365 26.478 0.585 35.328 9.582l77.531 77.605v-231.205c-0.146-9.435 3.803-18.871 10.752-25.893s16.311-11.045 25.673-11.045c9.435 0 18.798 4.096 25.746 11.118 6.875 7.022 10.825 16.457 10.679 25.6v231.424l77.385-77.458c9.070-9.216 22.674-13.093 35.547-9.728 12.654 3.365 22.601 13.458 25.819 26.185s-0.658 26.258-9.874 35.035l-139.703 139.776c-6.802 6.729-15.214 9.655-29.55 10.24-8.192-0.951-15.872-4.535-21.723-10.313l-139.337-139.41c-9.509-9.070-13.385-22.601-10.167-35.328s13.166-22.821 25.893-26.185zM366.958 707.73v0 0 0zM661.285 204.215c-12.654 3.291-26.405-0.512-35.328-9.655l-77.531-77.678v230.912c0.146 9.362-3.657 18.798-10.606 25.819-7.022 7.241-17.554 12.361-29.769 11.045-18.286-1.975-32.841-18.578-32.475-36.571v-231.131l-77.531 77.531c-6.875 6.949-16.311 11.191-29.55 10.679-14.117-1.463-26.185-10.971-30.793-24.357-4.608-13.458-0.951-28.453 8.997-37.961l139.703-139.703c6.875-6.802 15.945-10.533 25.6-10.533s18.725 3.73 25.673 10.606l139.264 139.337c9.582 8.997 13.531 22.601 10.24 35.328-3.218 12.873-13.166 22.894-25.893 26.331zM657.042 188.27v0 0 0zM956.562 473.893l-139.41 139.41c-6.802 7.022-17.335 10.24-29.623 10.898-14.043-1.39-26.185-10.898-30.939-24.43-4.535-13.458-0.951-28.453 8.997-37.888l77.678-77.531h-234.13c-9.362-0.512-18.505-4.974-25.088-12.142-6.583-7.241-10.094-16.75-9.655-26.039 0.878-18.871 17.627-34.743 37.303-34.743h231.351l-77.239-77.019c-9.509-9.070-13.458-22.674-10.167-35.328 3.218-12.727 13.166-22.747 25.819-26.039 3.145-0.878 6.363-1.317 9.582-1.317 9.801 0 19.31 4.023 25.893 10.825l139.557 139.557c6.875 6.802 10.825 16.238 10.825 25.893 0 9.801-3.803 19.017-10.752 25.893zM772.169 594.432v0 0 0zM180.882 411.429h231.643c19.456 0 36.498 17.042 36.498 36.425s-17.115 36.425-36.791 36.425h-231.424l77.166 77.166c11.703 10.971 14.848 28.014 7.899 42.35-5.998 12.507-18.871 20.626-32.768 20.626l-5.12-0.366c-8.046-1.097-15.506-4.974-20.919-10.606l-139.557-139.557c-6.949-6.875-10.825-16.091-10.825-25.893 0-9.655 3.95-19.090 10.752-25.819l139.41-139.337c6.729-7.095 16.311-11.118 26.112-11.118 3.218 0 6.437 0.439 9.435 1.243 12.727 3.438 22.674 13.458 25.893 26.112 3.218 12.727-0.658 26.258-9.947 35.109l-77.458 77.239zM233.253 607.232c-0.073 0-0.073 0-0.146 0v0.731l0.146-0.731z" />
<glyph unicode="&#xe906;" glyph-name="newfile" data-tags="newfile" horiz-adv-x="1195" d="M631.467 243.2h102.4c18.859 0 34.133 15.275 34.133 34.133s-15.275 34.133-34.133 34.133h-102.4v102.4c0 18.859-15.275 34.133-34.133 34.133s-34.133-15.275-34.133-34.133v-102.4h-102.4c-18.859 0-34.133-15.275-34.133-34.133s15.275-34.133 34.133-34.133h102.4v-102.4c0-18.859 15.275-34.133 34.133-34.133s34.133 15.275 34.133 34.133v102.4zM1092.437 813.568h-520.192c-4.011 0-7.851 1.963-10.069 5.205l-67.157 96.512c-18.347 26.283-48.64 41.984-81.067 41.984h-311.723c-54.016 0-97.963-43.179-97.963-96.085v-826.283c0-52.992 43.947-96.085 97.963-96.085h990.208c54.016 0 97.963 43.179 97.963 96.085v682.581c0 52.907-43.947 96.085-97.963 96.085zM90.197 861.184c0 6.4 5.376 11.691 12.032 11.691h311.723c4.011 0 7.851-1.963 10.155-5.205l67.157-96.512c18.347-26.283 48.64-41.984 81.067-41.984h520.107c6.656 0 12.032-5.205 12.032-11.691v-682.581c0-6.4-5.376-11.605-12.032-11.605h-990.208c-6.656 0-12.032 5.205-12.032 11.605v826.283zM1147.477 591.701h-1100.288c-20.224 0-36.693 16.128-36.693 35.925s16.469 35.925 36.693 35.925h1100.203c20.309 0 36.693-16.128 36.693-35.925s-16.384-35.925-36.608-35.925z" />
<glyph unicode="&#xe907;" glyph-name="newmission" data-tags="newmission" horiz-adv-x="731" d="M548.571-64h-365.714c-100.791 0-182.857 81.993-182.857 182.857v540.16c0 100.791 82.066 182.857 182.857 182.857h365.714c100.864 0 182.857-82.066 182.857-182.857v-540.16c0-100.864-81.993-182.857-182.857-182.857zM182.857 768.731c-60.489 0-109.714-49.225-109.714-109.714v-540.16c0-60.489 49.225-109.714 109.714-109.714h365.714c60.489 0 109.714 49.225 109.714 109.714v540.16c0 60.489-49.225 109.714-109.714 109.714h-365.714zM589.166 893.586h-446.903c-21.285 0-35.474 12.654-35.474 31.671s14.19 31.671 35.474 31.671h443.319c21.285 0 35.474-12.654 35.474-31.671s-14.19-31.671-31.89-31.671zM394.971 345.6h87.771c16.165 0 29.257 13.093 29.257 29.257s-13.093 29.257-29.257 29.257h-87.771v87.771c0 16.165-13.093 29.257-29.257 29.257s-29.257-13.093-29.257-29.257v-87.771h-87.771c-16.165 0-29.257-13.093-29.257-29.257s13.093-29.257 29.257-29.257h87.771v-87.771c0-16.165 13.093-29.257 29.257-29.257s29.257 13.093 29.257 29.257v87.771z" />
<glyph unicode="&#xe908;" glyph-name="open" data-tags="open" d="M777.143-14.629h-530.286c-108.91 0-197.486 88.503-197.486 197.193v530.871c0 108.763 88.576 197.193 197.486 197.193h247.369c21.065 0 36.937-15.872 36.937-36.937s-15.872-36.937-36.937-36.937h-247.369c-68.169 0-123.611-55.296-123.611-123.392v-530.871c0-68.023 55.442-123.392 123.611-123.392h530.286c68.242 0 123.611 55.369 123.611 123.392v249.783c0 21.065 15.872 36.864 36.937 36.864s36.937-15.872 36.937-36.864v-249.71c0-108.69-88.576-197.193-197.486-197.193zM496.859 395.337c-9.289 0-19.31 4.169-26.039 10.825-14.555 14.629-14.555 37.449 0 52.005l377.929 377.198h-157.111c-21.065 0-37.010 15.872-37.010 36.937s15.945 36.937 37.010 36.937h246.053c21.065 0 36.937-15.872 36.937-36.937v-245.687c0-21.065-15.872-36.864-36.937-36.864s-36.937 15.872-36.937 36.864v156.891l-377.929-377.271c-6.729-6.802-16.53-10.898-25.966-10.898z" />
<glyph unicode="&#xe909;" glyph-name="rectangle" data-tags="rectangle" horiz-adv-x="1103" d="M772.647-163.092l-190.228 296.015h-189.046c-195.19 0-353.989 159.035-353.989 354.462v78.769c0 195.426 158.878 354.462 354.146 354.462h315.707c195.269 0 354.146-159.035 354.146-354.462v-78.769c0-171.953-123.431-319.961-218.821-349.263l-71.916-301.214zM393.531 841.846c-151.867 0-275.377-123.668-275.377-275.692v-78.769c0-152.025 123.431-275.692 275.22-275.692h232.133l113.428-176.601 42.142 176.601h31.114c41.669 0 172.426 114.373 172.426 275.692v78.769c0 152.025-123.51 275.692-275.377 275.692h-315.707z" />
<glyph unicode="&#xe90a;" glyph-name="upload" data-tags="upload" horiz-adv-x="1317" d="M674.962 0.878c-6.363 0-12.654 1.755-18.213 5.12-10.971 6.656-17.701 18.944-17.554 32.11v233.033l-30.354-36.059c-12.727-14.848-36.571-16.311-50.688-3.145-14.555 13.385-15.945 36.498-3.145 51.639l93.038 110.446c5.778 6.802 13.605 11.118 21.943 12.288 11.191 1.463 24.064-2.853 31.963-12.215l93.038-110.592c12.727-15.067 11.337-38.181-3.145-51.566-14.263-13.093-38.107-11.703-50.688 2.999l-30.427 36.206v-233.179c0.219-13.093-6.583-25.381-17.627-32.037-5.413-3.291-11.703-5.047-18.139-5.047zM805.815 103.131c-12.727 0-24.576 7.022-30.939 18.359-6.363 11.41-6.363 25.527-0.073 36.791 6.437 11.337 18.286 18.432 31.013 18.432h199.826c106.715 0 190.391 86.967 190.391 198.071 0 84.846-48.274 158.135-123.026 186.661-12.581 4.681-21.723 16.677-23.186 30.427-10.752 91.502-86.894 160.622-177.152 160.622-23.991 0-49.664-4.242-66.853-10.971-12.946-5.339-28.818-1.755-38.693 8.704-44.398 47.323-98.304 71.387-160.475 71.387-119.442 0-218.478-92.599-230.254-215.406-1.682-19.017-17.042-33.353-35.621-33.353-106.789 0-190.464-87.040-190.464-198.071s83.602-198.071 190.391-198.071h199.461c13.166 0 25.015-7.095 31.378-18.432 6.29-11.264 6.29-25.381 0-36.718-6.363-11.337-18.286-18.432-30.939-18.432h-199.899c-144.384 0-261.851 121.856-261.851 271.653 0 138.679 99.035 252.928 231.643 268.727 28.306 146.286 151.845 251.611 296.155 251.611 72.338 0 139.776-27.355 195.291-79.214 149.577 41.618 287.525-53.687 315.319-196.096 91.355-44.471 150.162-140.142 150.162-245.029 0-149.797-117.394-271.653-261.778-271.653h-199.826z" />
<glyph unicode="&#xe90b;" glyph-name="vacation" data-tags="vacation" d="M927.104 571.584h-23.488c37.76 38.912 59.392 91.136 59.392 146.368 0 116.288-94.592 210.88-210.88 210.88s-210.88-94.592-210.88-210.88c0-55.232 21.632-107.456 59.392-146.368h-39.808c-6.784 0-13.44-0.96-20.096-2.88v0.576c0 45.248-36.224 82.24-81.216 83.52v162.624c0 17.792-14.464 32.256-32.256 32.256h-21.248c-15.488 56.384-70.272 97.408-132.992 97.408s-117.504-41.024-132.928-97.472h-21.312c-17.792 0-32.256-14.464-32.256-32.256v-162.624c-44.992-1.216-81.152-38.208-81.152-83.456v-500.8c0-17.792 14.464-32.256 32.256-32.256h0.256v-22.464c0-23.424 19.072-42.496 42.496-42.496h44.416c23.424 0 42.496 19.072 42.496 42.496v22.464h211.584v-22.464c0-23.424 19.072-42.496 42.496-42.496h44.48c23.424 0 42.496 19.072 42.496 42.496v22.464h0.512v-22.464c0-23.424 19.072-42.496 42.496-42.496h44.48c23.424 0 42.496 19.072 42.496 42.496v22.464h211.584v-22.464c0-23.424 19.072-42.496 42.496-42.496h44.48c23.424 0 42.496 19.072 42.496 42.496v22.464h0.256c17.792 0 32.256 14.464 32.256 32.256v416.768c-0.256 47.616-38.144 86.336-84.8 86.336zM273.024 880.576c26.816 0 50.944-13.056 63.68-32.96h-127.36c12.8 19.904 36.864 32.96 63.68 32.96zM395.072 783.168v-16.704h-244.032v16.704h244.032zM151.040 701.952h146.624v-16.512c0-17.792 14.464-32.256 32.256-32.256s32.256 14.464 32.256 32.256v16.512h32.96v-49.152h-244.096v49.152zM69.824 569.28c0 10.496 8.512 19.072 19.008 19.072h368.384c10.496 0 19.008-8.512 19.008-19.072v-241.28h-406.4v241.28zM492.288 376.96c0 0 0 0 0 0v0c0 0 0 0 0 0v0zM69.824 263.552h49.216v-16.448c0-17.792 14.464-32.256 32.256-32.256s32.256 14.464 32.256 32.256v16.448h292.8v-162.88h-406.528v162.88zM540.736 485.248c0 12.096 9.024 21.888 20.096 21.888h366.272c11.072 0 20.096-9.792 20.096-21.888v-76.032h-406.464v76.032zM540.736 295.744v48.96h308.992v-16.448c0-17.792 14.464-32.256 32.256-32.256s32.256 14.464 32.256 32.256v16.448h32.96v-244.032h-406.464v195.072zM654.912 685.76v-32.704c0-17.792 14.464-32.256 32.256-32.256s32.256 14.464 32.256 32.256v32.704h174.72c-14.784-66.176-73.024-114.176-142.016-114.176s-127.232 47.936-142.016 114.176h44.8zM752.064 864.384c68.992 0 127.232-48 142.016-114.176h-283.968c14.784 66.176 73.024 114.176 141.952 114.176z" />
<glyph unicode="&#xe90c;" glyph-name="gmail" data-tags="gmail" horiz-adv-x="1280" d="M638.135-63.781c-274.432 0-500.919 238.738-500.919 521.253 0 276.919 230.034 502.235 509.44 502.235 96.768 0 198.473-34.341 291.511-99.365l-115.31-166.034c-41.070 28.672-104.265 62.83-173.824 62.83-167.717 0-304.018-134.4-304.018-299.666 0-172.727 139.154-321.938 303.799-321.938 124.818 0 237.897 111.36 283.026 184.503h-273.554v146.286h475.429v-38.4c0-266.569-221.111-491.703-495.579-491.703z" />
<glyph unicode="&#xe90d;" glyph-name="qq" data-tags="qq" horiz-adv-x="1280" d="M1042.615 365.458c-13.531 32.987-30.83 62.647-49.189 86.857 14.958 11.483 25.344 35.621 25.344 63.817 0 39.058-19.785 70.693-44.251 71.022 2.121 14.958 3.584 30.098 3.584 45.641 0 180.626-147.529 327.022-329.545 327.022-181.943 0-329.472-146.395-329.472-327.022 0-17.335 1.755-34.267 4.389-50.871-16.347-10.569-27.904-35.986-27.904-65.792 0-17.189 3.986-32.768 10.386-45.056-21.211-22.821-41.874-52.078-58.807-85.76-46.738-93.111-39.753-187.246-10.971-202.569 14.775-7.863 53.285 17.371 91.099 63.232 6.034-54.162 31.525-103.643 70.729-143.397-64.695-19.127-107.63-56.795-101.888-95.122 7.168-48.421 89.051-79.47 183.003-69.339 68.937 7.461 125.038 35.072 147.237 68.389 5.778-0.256 11.483-0.731 17.335-0.731 10.057 0 20.005 0.475 29.842 1.243 23.845-31.634 76.617-57.929 140.398-66.085 91.063-11.557 169.911 18.176 176.018 66.487 4.864 38.071-36.937 76.251-99.401 96.439 36.827 37.778 61.294 84.187 68.571 135.022 33.609-46.007 67.986-75.849 85.979-71.899 21.211 4.681 36.389 103.68-2.487 198.473z" />
<glyph unicode="&#xe90e;" horiz-adv-x="3527" d="M210.754 801.621c15.284 9.178 33.602 15.284 58.065 15.284 36.674 0 64.171-6.106 76.421-18.356s21.39-33.602 21.39-61.137v-15.284c-24.462-12.174-73.387-12.174-137.557-24.424-48.887-9.14-88.633-33.602-113.095-45.815-27.496-12.25-45.852-30.568-61.137-58.103-15.284-24.462-21.39-51.959-21.39-85.599 0-48.887 15.284-88.633 48.887-119.201 30.568-30.568 76.421-45.852 131.413-45.852 30.568 0 61.137 6.106 88.633 18.356s55.031 30.568 79.455 55.031c27.496-21.39 45.852-39.746 70.315-73.349l116.129 100.845c-24.462 51.959-58.065-3.072-58.065 97.811l3.072 171.16c0 64.171-6.106 106.989-18.356 131.413s-33.602 42.78-67.243 58.065c-30.568 15.284-79.455 36.674-143.663 36.674-70.315 0-122.273-24.462-158.948-51.959-36.599-24.424-61.061-67.205-76.345-119.163l128.379-24.462c9.178 24.462 21.39 42.78 33.602 55.031v3.034zM366.63 596.859v0c0-36.674-3.072-58.065-6.106-73.349-6.106-18.356-15.284-36.674-33.602-48.887-24.462-18.356-48.887-27.496-73.349-27.496s-42.78 6.106-58.065 21.39c-15.284 15.284-21.39 33.602-21.39 55.031 0 21.39 9.178 39.746 27.496 51.959 12.174 9.14 36.636 18.28 76.383 24.386 39.708 9.178 67.243 15.284 85.561 21.428v-30.568l3.072 6.106z" />
<glyph unicode="&#xe90f;" horiz-adv-x="3527" d="M643.413 373.172h143.663v272.005c0 55.031 3.072 91.705 12.212 116.129 6.106 24.462 21.39 39.746 36.674 51.959 18.356 12.212 30.568 18.356 48.887 18.356 15.284 0 24.462-15.284 33.602-45.852 3.072-15.284 6.106-51.959 6.106-103.917v-305.645h149.769v268.971c0 51.959 3.072 91.705 9.178 116.129s18.356 42.78 33.602 55.031 30.568 18.356 48.887 18.356c24.462 0 27.496-9.178 39.746-30.568 9.178-15.284 12.212-51.959 12.212-106.989v-320.929h137.557v357.604c0 51.959-3.072 103.917-12.212 128.379-12.212 33.602-30.568 58.065-55.031 73.349s-51.883 24.462-88.595 24.462c-27.496 0-51.959-6.106-76.421-21.39s-45.852-36.674-67.243-67.243c-15.284 30.568-33.602 51.959-55.031 67.243-21.352 15.284-48.849 21.39-79.417 21.39-58.065 0-103.917-30.568-152.841-88.633v76.421h-131.413v-571.544l6.106-3.072z" />
<glyph unicode="&#xe910;" horiz-adv-x="3527" d="M2451.115 379.847v131.413c0 0-158.948 42.78-204.8 33.602-18.356 12.212 9.178 42.78 9.178 42.78l180.338 247.58v103.917h-382.066v-122.273h125.307c27.496 0 48.887 0 64.171 3.072-45.852-76.421-210.906-324.001-210.906-324.001v-116.129c0 0 97.811 48.887 198.656 48.887 107.027 0.038 220.122-48.849 220.122-48.849z" />
<glyph unicode="&#xe911;" horiz-adv-x="3527" d="M2524.084 501.513c21.39-45.852 51.959-79.455 91.705-103.917s82.527-36.674 125.307-36.674c70.315 0 131.413 27.496 177.266 85.599 45.852 58.065 70.315 128.379 70.315 213.94s-24.462 155.876-70.315 213.94c-45.852 55.031-106.951 85.599-180.338 85.599-45.852 0-91.705-12.212-128.379-36.674-39.746-24.462-67.243-61.137-88.633-106.989s-30.568-94.739-30.568-146.697c0-64.171 9.178-122.273 30.568-168.088h3.072zM2686.066 810.231v0c18.356 33.602 24.462 24.462 58.065 24.462s51.959 6.106 70.315-24.462c18.356-33.602 24.462-79.455 24.462-140.591 0-64.171-9.178-110.023-24.462-143.663-18.356-33.602-39.746-48.887-64.171-48.887s-45.852 15.284-64.171 48.887c-18.356 33.602-24.462 79.455-24.462 143.663 0 61.137 9.178 110.023 24.462 143.663v-3.072z" />
<glyph unicode="&#xe912;" horiz-adv-x="3527" d="M3510.575 733.81c0 42.78-3.072 76.421-9.178 100.845s-15.284 42.78-27.496 61.137-33.602 33.602-58.065 45.852c-27.534 12.25-55.031 18.356-85.599 18.356-70.315 0-79.455-30.568-125.307-94.739v82.527h-131.413v-571.544h143.663v265.899c0 61.137 12.212 128.379 12.212 128.379s21.39 42.78 39.746 55.031c9.178 6.106 30.568 15.284 64.171 6.106 12.212-9.178 24.462-24.462 30.568-42.78 6.106-18.356 9.178-58.065 9.178-116.129v-296.467h143.663v360.676l-6.144-3.148z" />
<glyph unicode="&#xe913;" horiz-adv-x="3527" d="M1626.643 801.621c15.284 9.178 33.602 15.284 58.065 15.284 36.674 0 64.171-6.106 76.421-18.356s21.39-33.602 21.39-61.099v-15.284c-24.462-12.212-73.349-12.212-137.557-24.462-48.887-9.178-88.633-33.602-113.095-45.852-27.496-12.212-45.852-30.568-61.137-58.065-15.284-24.462-21.39-51.959-21.39-85.599 0-48.887 15.284-88.633 48.887-119.201 30.568-30.568 76.421-45.852 131.413-45.852 30.568 0 61.137 6.106 88.633 18.356 27.496 12.212 55.031 30.568 79.455 55.031 27.496-21.39 42.78-39.746 70.315-73.349l116.129 100.845c-24.462 51.959-58.065-3.072-58.065 97.811v171.16c0 64.171-6.106 106.989-18.356 131.413-12.212 24.462-33.602 42.78-67.243 58.065-30.568 15.284-79.455 36.674-143.663 36.674-70.315 0-122.273-24.462-158.948-51.959-36.674-24.462-61.137-67.243-76.421-119.201l128.379-24.462c9.178 24.462 21.39 42.78 33.602 55.031l3.186 3.072zM1782.519 596.859v0c0-36.674-3.072-58.065-6.106-73.349-6.106-18.356-15.284-36.674-33.602-48.887-24.462-18.356-48.887-27.496-73.349-27.496s-42.78 6.106-58.065 21.39-21.39 33.602-21.39 55.031c0 21.39 9.178 39.746 27.496 51.959 12.212 9.178 36.674 18.356 76.421 24.462 39.746 9.178 67.243 15.284 85.599 21.39v-30.568l2.996 6.068z" />
<glyph unicode="&#xe914;" horiz-adv-x="3527" d="M534.756 311.467c21.39 27.496 461.521-247.58 907.757-235.33 385.1-6.106 724.385 161.982 754.953 137.557 30.568-27.496-125.307-183.372-678.533-272.043-748.847 6.106-1008.64 345.353-984.178 372.85v-3.034z" />
<glyph unicode="&#xe915;" horiz-adv-x="3527" d="M2056.268 259.356c-3.072-45.852 217.012 33.602 229.224 0s-51.959-220.046-39.746-235.33c70.315-21.39 195.622 247.58 128.379 311.751-67.243 61.137-314.823-30.568-320.929-73.349l3.072-3.072z" />
<glyph unicode="&#xe916;" horiz-adv-x="1280" d="M638.135-63.781c-274.432 0-500.919 238.738-500.919 521.253 0 276.919 230.034 502.235 509.44 502.235 96.768 0 198.473-34.341 291.511-99.365l-115.31-166.034c-41.070 28.672-104.265 62.83-173.824 62.83-167.717 0-304.018-134.4-304.018-299.666 0-172.727 139.154-321.938 303.799-321.938 124.818 0 237.897 111.36 283.026 184.503h-273.554v146.286h475.429v-38.4c0-266.569-221.111-491.703-495.579-491.703z" />
<glyph unicode="&#xe917;" horiz-adv-x="1280" d="M832.402 209.957c-51.822-41.655-115.931-74.496-183.625-74.496-164.645 0-303.799 149.248-303.799 321.938 0 165.266 136.265 299.666 304.018 299.666 69.559 0 132.791-34.158 173.824-62.83l115.346 166.034c-93.038 65.024-194.743 99.365-291.511 99.365-279.406 0-509.44-225.353-509.44-502.235 0-282.514 226.487-521.253 500.919-521.253 133.778 0 254.647 53.76 343.662 139.483l-149.394 134.327z" />
<glyph unicode="&#xe918;" horiz-adv-x="1280" d="M365.239 345.746c-12.837 35.109-20.261 72.741-20.261 111.689 0 165.266 136.265 299.666 304.018 299.666 69.559 0 132.791-34.158 173.824-62.83l115.346 166.034c-93.038 65.024-194.743 99.365-291.511 99.365-279.406 0-509.44-225.353-509.44-502.235 0-86.162 21.285-168.119 58.331-240.567l169.691 128.878z" />
<glyph unicode="&#xe919;" horiz-adv-x="1280" d="M357.12 540.599c36.645 124.891 153.417 216.503 291.877 216.503 69.559 0 132.791-34.158 173.824-62.83l115.346 166.034c-93.038 65.024-194.743 99.365-291.511 99.365-201.984 0-377.637-118.016-459.776-287.89l170.24-131.182z" />
<glyph unicode="&#xe91a;" glyph-name="warning" data-tags="warning" horiz-adv-x="1152" d="M1026.624-25.152h-914.368c-28.288 0-55.552 16.384-67.712 40.704-14.208 20.864-14.272 53.568 1.984 78.016l456.128 790.848c35.264 53.056 111.104 44.928 134.464-1.664l456.32-790.976c15.104-22.656 15.104-55.36-1.152-79.68-8.32-20.992-34.624-37.248-65.664-37.248zM569.408 859.392c-5.76 0-10.304-5.44-12.416-8.704l-456.064-790.848c-3.072-4.736-3.136-9.216-1.152-12.16 3.136-5.696 7.68-8.768 12.48-8.768h914.368c0.832 0 8.128 0.128 9.6 3.584 4.8 8.192 4.8 12.608 2.816 15.616l-458.24 794.304c-2.048 3.904-6.528 6.976-11.392 6.976zM523.456 555.968h91.904v-257.344h-91.904v257.344zM569.408 144.768v0c-25.28 0-45.952 20.672-45.952 45.952s20.672 45.952 45.952 45.952 45.952-20.672 45.952-45.952-20.672-45.952-45.952-45.952z" />
<glyph unicode="&#xe91b;" glyph-name="back" data-tags="back" horiz-adv-x="1317" d="M274.432 690.981c-6.29-6.363-4.535-11.483 4.462-11.483h602.99c185.198 0 335.287-150.089 335.287-335.36s-149.943-335.36-335.287-335.36h-303.177c-26.551 0-48.128 21.285-48.128 47.909v0c0 26.478 21.431 47.909 48.128 47.909h303.25c132.462 0 239.47 107.154 239.47 239.543 0 132.315-107.227 239.543-239.47 239.543h-603.063c-8.777 0-10.971-4.974-4.462-11.483l114.322-114.322c18.725-18.725 18.798-48.933 0-67.73v0c-18.651-18.725-49.079-18.725-67.584-0.146l-207.872 207.799c-18.651 18.651-18.578 48.933 0 67.511l207.799 207.799c18.651 18.651 48.786 18.725 67.657-0.146v0c18.725-18.725 18.578-49.152 0-67.73l-114.322-114.249z" />
<glyph unicode="&#xe91c;" glyph-name="new-tips" data-tags="new-tips" d="M978.895 310.833l-141.458 388.73c-15.896 43.642-41.009 68.657-68.998 68.657-10.386 0-19.895-4.437-28.087-11.264-10.094 63.781-68.803 110.202-134.875 101.961l-139.995-17.164c-3.365 10.728-7.168 22.089-11.8 33.841-11.215 28.282-47.884 48.811-87.186 48.811-37.986 0-70.461-18.773-89.088-51.541-10.533-18.53-13.068-39.156-13.361-41.691-0.195-2.146-0.341-7.656-0.195-14.19l-120.588-14.775c-32.28-3.998-61.147-20.285-81.189-45.982s-28.867-57.588-24.917-89.868l56.466-459.776c7.509-61.050 59.441-107.081 120.881-107.081 4.974 0 9.947 0.341 15.019 0.975l68.023 8.338 14.824-40.765c20.968-57.685 76.312-96.451 137.704-96.451 17.067 0 33.841 3.023 49.932 8.875l391.509 142.482c75.825 27.55 115.029 111.86 87.381 187.88zM461.434 625.493c-2.926-16.969-26.429-40.667-57.929-40.667-19.163 0-37.498 8.68-53.346 24.625-15.994 19.066-16.774 31.646-14.726 36.084 1.365 2.877 4.389 3.511 6.68 3.511 1.999 0 5.461-0.488 9.704-3.121 6.29-24.527 24.332-41.594 45.105-41.594 11.508 0 22.187 5.266 30.037 14.872 10.533 12.873 20.87 39.595 10.338 92.014-2.877 30.135-6.924 55.394-11.995 76.556l14.19 1.755c11.118-48.226 25.259-147.212 21.943-164.035zM302.86 826.978c0 0.146 1.853 14.872 8.485 26.624 15.701 27.648 41.301 31.793 55.15 31.793 24.674 0 46.275-12.532 50.859-24.186 3.267-8.29 6.144-16.433 8.728-24.332l-17.749-2.146c-7.363 12.971-15.799 21.455-25.649 24.82l0.049 0.098c-1.707 0.78-10.679 4.779-21.943 4.779-12.483 0-23.308-4.779-31.256-13.751-7.558-8.436-10.24-17.944-11.362-27.014l-15.458-1.902c0 1.804 0 3.706 0.146 5.218zM223.525 148.797c-40.716-5.169-76.654 24.088-81.53 63.683l-56.466 459.825c-2.389 19.358 2.926 38.522 14.97 53.931 12.044 15.36 29.355 25.21 48.713 27.55l129.755 15.945c0.195-0.146 0.195-0.39 0.341-0.536 8.241-9.118 19.31-13.946 32.037-13.946l5.754 0.341c20.334 2.243 30.037 12.093 34.767 23.113l34.572 4.242c4.389-17.554 8.875-42.13 12.288-77.434 8.875-44.52-0.049-60.757-1.56-62.171-1.609 0.341-6.778 5.071-8.338 16.043l-0.975 6.827-5.022 4.73c-26.819 25.112-69.388 19.749-82.749-8.972-4.827-10.338-12.532-38.619 21.26-78.75 30.525-30.915 61.538-37.4 82.164-37.4 51.688 0 90.307 37.888 96.305 72.606 5.266 26.965-11.995 133.071-21.504 175.787l133.071 16.335c3.023 0.341 6.046 0.536 9.070 0.536 36.815 0 67.974-27.599 72.46-64.219l56.466-459.776c0.439-3.755 0.39-7.509 0.293-11.215-4.389-22.138-15.604-42.179-31.89-57.149-1.463-0.975-2.487-2.536-3.998-3.462-0.39-0.341-0.878-0.585-1.268-0.926-8.192-4.584-17.213-7.607-26.77-8.777l-462.214-56.759zM874.837 168.692l-391.509-142.482c-49.542-18.042-107.325 9.314-125.172 58.417l-5.803 15.896 316.952 43.593c24.917 3.413 47.348 13.507 66.755 27.502 14.043 7.802 26.575 18.383 36.766 31.451 15.604 19.992 24.186 43.837 25.454 68.657 2.048 12.434 3.072 25.161 1.804 38.181l-35.401 368.25c-1.999 28.818 4.584 40.521 3.072 41.35 2.438-0.634 13.653-8.777 23.796-36.62l141.458-388.73c18.53-50.761-7.607-107.032-58.173-125.464z" />
<glyph unicode="&#xe91d;" glyph-name="release" data-tags="release" horiz-adv-x="1126" d="M82.851 513.164l413.324-134.051v43.753l-413.324 134.051zM351.884 518.749l144.291-45.615v43.753l-144.291 45.615zM351.884 609.047l144.291-44.684v42.822l-144.291 45.615zM351.884 700.276l144.291-45.615v43.753l-144.291 44.684zM1034.24 589.498l-413.324-134.051v-43.753l413.324 134.051zM891.811 335.36l142.429 44.684v43.753l-142.429-44.684zM891.811 244.131l142.429 44.684v43.753l-142.429-44.684zM891.811 152.902l142.429 44.684v43.753l-142.429-44.684zM1108.713 947.898c-3.724 2.793-7.447 3.724-12.102 3.724-1.862 0-4.655 0-6.516-0.931l-531.549-175.942-531.549 175.942c-6.516 1.862-13.033 0.931-18.618-2.793s-8.378-10.24-8.378-16.756v-787.549c0-9.309 5.585-16.756 13.964-19.549l538.996-178.735c1.862 0 2.793-0.931 4.655-0.931h1.862c1.862 0 3.724 0 5.585 0.931v0 0l538.065 177.804c8.378 2.793 13.964 11.171 13.964 19.549v788.48c0 6.516-2.793 12.102-8.378 16.756zM40.96 902.284l496.175-164.771v-743.796l-496.175 164.771v743.796zM1076.131 158.487l-496.175-164.771v743.796l496.175 164.771v-743.796zM82.851 198.516l413.324-134.051v191.767l-413.324 134.051v-191.767zM123.811 333.498l331.404-107.985v-104.262l-331.404 107.985v104.262zM304.407 759.855l-221.556 71.68v-224.349l221.556-71.68v224.349zM262.516 592.291l-138.705 44.684v137.775l138.705-44.684v-137.775zM1034.24 831.535l-413.324-134.051v-191.767l413.324 134.051v191.767zM993.28 670.487l-331.404-107.985v104.262l331.404 107.985v-104.262zM842.473 360.495l-221.556-71.68v-224.349l221.556 71.68v224.349zM800.582 166.865l-138.705-44.684v135.913l138.705 44.684v-135.913z" />
<glyph unicode="&#xe91e;" glyph-name="work-table" data-tags="work-table" horiz-adv-x="1325" d="M285.636 492.092c12.469 0 24.154 5.421 32.226 14.938 7.349 8.614 10.842 19.516 9.879 30.78-0.964 11.204-6.204 21.384-14.758 28.672l-102.761 88.124h887.808c11.505 0 22.889 5.24 31.081 14.396 8.252 9.096 12.168 20.902 10.963 32.346-2.229 20.721-21.082 37.527-42.466 37.527h-887.386l102.52 87.944c11.204 9.096 16.866 23.13 15.179 37.406-1.747 15.661-11.987 28.973-26.744 34.696-14.456 5.542-31.563 2.409-42.888-7.59l-189.38-162.334c-9.577-8.072-14.999-19.817-14.999-32.286s5.481-24.215 14.938-32.166l189.56-162.515c7.59-6.385 17.288-9.939 27.226-9.939zM1260.544 214.468l-189.56 162.575c-11.384 9.517-27.648 12.529-41.562 7.469-14.155-5.12-24.636-17.468-27.287-32.226-2.65-14.818 2.831-29.997 14.155-39.635l102.761-88.184h-888.169c-22.468 0-42.165-19.697-42.165-42.104s19.697-42.104 42.586-42.104h887.748l-102.701-88.124c-11.384-9.698-16.866-24.877-14.216-39.695 2.65-14.758 13.131-27.106 27.287-32.226 4.578-1.626 9.336-2.47 14.216-2.47 9.939 0 19.637 3.554 27.407 10.059l189.32 162.334c11.204 9.336 16.625 23.612 14.577 38.189-1.446 10.24-6.626 19.637-14.396 26.142z" />
<glyph unicode="&#xe91f;" glyph-name="cooperation" data-tags="cooperation" horiz-adv-x="1243" d="M1217.245 598.582l-361.366 361.418-88.11-88.059c-62.265 31.984-144.65 20.119-195.618-30.797l-10.575-10.575c-47.976 24.504-105.289 24.607-153.213 0.103l-46.944 46.996-361.418-361.521 129.947-129.947c-32.139-63.142-22.595-142.225 30.127-194.895l206.038-206.090c31.778-31.726 73.976-49.214 118.908-49.214 29.456 0 57.416 8.202 82.384 22.389 24.916-14.135 52.928-22.389 82.384-22.389 44.932 0 87.13 17.488 118.908 49.214l123.654 123.602c52.722 52.773 62.265 131.856 30.127 194.947l294.768 294.819zM819.355 181.812l-123.602-123.602c-14.496-14.444-35.131-19.293-54.785-16.714 24.246 60.666 11.917 132.63-37.039 181.586l-206.038 206.038c-50.813 50.865-131.65 60.357-194.586 29.714l-57.416 57.313 215.478 215.53 50.658-50.658-123.602-123.602 77.638-77.741c63.503-63.452 174.157-63.503 237.816 0.052l4.746 4.694 210.732-210.732c25.329-25.329 25.329-66.547 0-91.876z" />
<glyph unicode="&#xe920;" glyph-name="job-position" data-tags="job-position" horiz-adv-x="1243" d="M823.351 762.119v60.886c0 70.573-58.119 128.692-128.692 128.692h-171.589c-70.573 0-128.692-58.119-128.692-128.692v-60.886h38.746v60.886c0 49.816 40.13 91.33 91.33 91.33h171.589c49.816 0 91.33-40.13 91.33-91.33v-60.886h35.978zM1.384 72.995c0-70.573 58.119-128.692 128.692-128.692h956.195c70.573 0 128.692 58.119 128.692 128.692v478.789l-438.659-185.427v-102.4c0-56.735-47.049-103.784-103.784-103.784h-125.924c-56.735 0-103.784 47.049-103.784 103.784v102.4l-441.427 185.427v-478.789zM4.151 605.751l442.811-185.427c12.454 42.897 52.584 74.724 99.632 74.724h125.924c47.049 0 87.178-31.827 99.632-74.724l442.811 185.427c-11.070 60.886-63.654 106.551-127.308 106.551h-957.578c-62.27 0-114.854-45.665-125.924-106.551zM545.211 443.849c-29.059 0-52.584-23.524-52.584-52.584v-125.924c0-29.059 23.524-52.584 52.584-52.584h125.924c29.059 0 52.584 23.524 52.584 52.584v125.924c0 29.059-23.524 52.584-52.584 52.584h-125.924z" />
<glyph unicode="&#xe921;" glyph-name="new-product" data-tags="new-product" horiz-adv-x="1463" d="M957.207 721.266v-623.304h99.219c15.164 60.367 69.705 105.739 134.526 105.739s119.361-45.372 134.526-105.739h99.219v445.217l-178.091 178.087h-289.398zM1068.514 609.961h155.83l89.046-89.043-0.935-134.175-243.918 0.623-0.022 222.595zM244.842 921.613c-12.293 0-22.261-9.968-22.261-22.261v-178.087h-177.744c-30.102 0.445-30.102-44.945 0-44.522h310.965c30.102 0.445 30.102-44.945 0-44.522h-133.221v-66.783h-133.221c-30.102 0.445-30.102-44.945 0-44.522h310.965c30.102 0.445 30.102-44.945 0-44.522h-177.744v-66.783h-88.436c-30.102 0.445-30.102-44.945 0-44.522h311.049c30.102 0.445 30.102-44.945 0-44.522h-222.614v-200.348c0-12.292 9.969-22.261 22.261-22.261h121.48c15.164 60.367 69.705 105.739 134.526 105.739s119.361-45.372 134.526-105.739h277.31v801.391c0 12.292-9.969 22.261-22.261 22.261h-645.58zM1190.951 164.744c-55.326 0-100.176-44.849-100.176-100.174s44.85-100.174 100.176-100.174c55.326 0 100.176 44.849 100.176 100.174s-44.85 100.174-100.176 100.174v0zM1190.951 109.092c24.589 0 44.523-19.933 44.523-44.522s-19.934-44.522-44.523-44.522c-24.589 0-44.523 19.933-44.523 44.522s19.934 44.522 44.523 44.522zM500.848 164.744c-55.326 0-100.176-44.849-100.176-100.174s44.85-100.174 100.176-100.174c55.326 0 100.176 44.849 100.176 100.174s-44.85 100.174-100.176 100.174v0zM500.848 109.092c24.589 0 44.523-19.933 44.523-44.522s-19.934-44.522-44.523-44.522c-24.589 0-44.523 19.933-44.523 44.522s19.934 44.522 44.523 44.522z" />
</font>
</defs>
</svg>
