<?xml version="1.0" standalone="no"?>
<!DOCTYPE svg PUBLIC "-//W3C//DTD SVG 1.1//EN" "http://www.w3.org/Graphics/SVG/1.1/DTD/svg11.dtd" >
<svg xmlns="http://www.w3.org/2000/svg">
<metadata>Generated by IcoMoon</metadata>
<defs>
<font id="icomoon" horiz-adv-x="1024">
<font-face units-per-em="1024" ascent="960" descent="-64" />
<missing-glyph horiz-adv-x="1024" />
<glyph unicode="&#x20;" horiz-adv-x="512" d="" />
<glyph unicode="&#xe900;" glyph-name="chat-business" horiz-adv-x="1365" d="M1034.24 683.065v-125.838h-543.175v-248.491h543.175v-124.245h-543.175v-248.491h793.259v995.556h-1245.639v-995.556h250.084v747.065z" />
<glyph unicode="&#xe901;" glyph-name="chat-mission1" horiz-adv-x="1593" d="M28.217 931.556v-995.556h248.491v747.065h377.515v-747.065h248.491v747.065h369.55v-747.065h250.084v995.556z" />
<glyph unicode="&#xe902;" glyph-name="chat-private" horiz-adv-x="1365" d="M1034.24 683.065v-248.491h-995.556v-498.574h248.491v248.491h997.148v747.065h-1245.639v-248.491z" />
<glyph unicode="&#xe903;" glyph-name="color-bad" horiz-adv-x="1103" d="M1060.178 920.615h-154.25c-23.022 0-42.591-20.641-42.591-44.924v-540.305c0-24.283 19.569-44.924 42.591-44.924h154.25c23.022 0 42.591 20.641 42.591 44.924v540.305c0 24.283-18.418 44.924-42.591 44.924zM0 394.554c0-52.951 43.826-95.543 98.313-95.543h270.066c21.321 0 36.719-18.418 33.166-39.138 0 0-81.73-196.841-81.73-222.166s9.476-42.591 30.797-47.196c21.321-4.604 65.147-13.813 65.147-13.813 18.952-3.453 33.166 0 42.642 9.209l299.678 293.535c17.767 17.267 29.612 41.44 29.612 67.916v536.421c0 20.72-17.767 36.836-37.904 36.836h-503.412c-40.273 0-68.701-27.627-90.022-58.707l-136.217-174.97c-8.292-10.36-18.952-33.382-18.952-54.103v-233.677l-1.185-4.604z" />
<glyph unicode="&#xe904;" glyph-name="color-good" horiz-adv-x="1103" d="M42.591-24.615h154.25c23.022 0 42.591 20.641 42.591 44.924v540.305c0 24.283-19.569 44.924-42.591 44.924h-154.25c-23.022 0-42.591-20.641-42.591-44.924v-540.305c0-24.283 18.418-44.924 42.591-44.924zM1102.769 501.446c0 52.951-43.826 95.543-98.313 95.543h-270.066c-21.321 0-36.719 18.418-33.166 39.138 0 0 81.73 196.841 81.73 222.166s-9.476 42.591-30.797 47.196c-21.321 4.604-65.147 13.813-65.147 13.813-18.952 3.453-33.166 0-42.642-9.209l-299.678-293.535c-17.767-17.267-29.612-41.44-29.612-67.916v-536.421c0-20.72 17.767-36.836 37.904-36.836h503.412c40.273 0 68.701 27.627 90.022 58.707l136.217 174.97c8.292 10.36 18.952 33.382 18.952 54.103v233.677l1.185 4.604z" />
<glyph unicode="&#xe905;" glyph-name="sub-strikethrough" horiz-adv-x="1229" d="M1228.8 550.4h-199.68c-4.301 33.792-10.65 67.072-20.89 99.328-17.613 55.296-44.032 104.243-79.258 146.842s-79.053 76.595-131.482 101.99c-52.429 25.395-113.459 38.093-183.091 38.093s-130.662-12.698-183.091-38.093c-52.429-25.395-96.256-59.392-131.482-101.99s-61.645-91.546-79.258-146.842c-10.24-32.256-16.589-65.536-20.89-99.328h-199.68v-102.4h196.301c2.458-49.254 9.523-97.382 24.269-143.565 17.613-55.296 44.032-104.243 79.258-146.842s79.053-76.39 131.482-101.376c52.429-24.986 113.459-37.478 183.091-37.478s130.662 12.493 183.091 37.478c52.429 24.986 96.256 58.778 131.482 101.376s61.645 91.546 79.258 146.842c14.746 46.182 21.811 94.31 24.269 143.565h196.301v102.4zM328.090 607.949c11.469 43.008 29.491 81.715 54.067 116.122s56.115 62.054 94.618 82.944c38.502 20.89 84.378 31.334 137.626 31.334s99.123-10.445 137.626-31.334c38.502-20.89 70.042-48.538 94.618-82.944s42.598-73.114 54.067-116.122c5.12-19.046 8.602-38.298 11.469-57.549h-595.558c2.867 19.251 6.349 38.502 11.469 57.549zM900.71 346.214c-11.469-43.008-29.491-81.715-54.067-116.122s-56.115-62.054-94.618-82.944c-38.502-20.89-84.378-31.334-137.626-31.334s-99.123 10.445-137.626 31.334c-38.502 20.89-70.042 48.538-94.618 82.944s-42.598 73.114-54.067 116.122c-8.909 33.485-13.312 67.482-15.258 101.786h603.238c-2.048-34.304-6.451-68.301-15.36-101.786z" />
<glyph unicode="&#xe906;" glyph-name="sub-link" d="M558.336 208.213l-140.971-140.971c-33.195-33.109-76.032-51.115-123.051-51.115s-89.856 18.005-122.965 51.115l-38.656 38.656c-33.195 33.195-51.115 76.032-51.115 122.965 0 47.019 18.005 89.856 51.115 122.965l161.707 161.707c67.755 67.755 178.261 67.755 246.016 0l58.027-58.027c16.555-16.555 42.837-16.555 58.027 0 16.555 16.555 16.555 42.837 0 58.027l-58.027 58.027c-99.499 99.499-262.571 99.499-363.435 0l-160.341-160.341c-48.384-48.213-74.667-113.152-74.667-180.907s26.283-132.693 74.581-180.992l38.656-38.656c48.469-48.384 113.408-74.667 181.077-74.667 67.755 0 132.693 26.283 180.992 74.581l140.971 140.971c16.555 16.555 16.555 42.837 0 58.027-15.104 15.275-41.387 15.275-57.941-1.365zM910.677 885.419c-48.384 48.299-113.323 74.581-180.992 74.581-67.755 0-132.693-26.283-180.992-74.581l-121.685-121.685c-16.555-16.555-16.555-42.837 0-58.027 16.555-16.555 42.837-16.555 58.027 0l121.6 121.6c33.195 33.195 76.032 51.2 123.051 51.2s89.856-18.005 122.965-51.115l38.656-38.656c33.195-33.195 51.115-76.032 51.115-122.965 0-47.019-18.005-89.856-51.115-122.965l-140.971-142.336c-33.195-33.195-76.032-51.115-122.965-51.115-47.019 0-89.856 18.005-122.965 51.115l-58.027 58.027c-16.555 16.555-42.837 16.555-58.027 0-16.555-16.555-16.555-42.837 0-58.027l58.027-58.027c48.384-48.384 113.323-74.581 180.992-74.581 69.12 0 132.693 26.283 180.992 74.581l140.971 140.971c48.384 48.213 74.667 113.152 74.667 180.821 0 67.755-26.283 132.693-74.581 180.992l-38.741 40.192z" />
<glyph unicode="&#xe907;" glyph-name="sub-fontcolor" horiz-adv-x="922" d="M729.907 651.571h116.736c-6.554 46.694-20.48 87.859-41.779 123.494s-47.923 65.331-79.872 89.088c-31.949 23.757-68.403 41.779-109.363 54.067s-84.378 18.432-130.253 18.432c-67.174 0-126.771-12.083-178.79-36.25s-95.437-57.139-130.253-98.918c-34.816-41.779-61.235-90.726-79.258-146.842s-27.034-116.122-27.034-180.019c0-63.898 8.397-123.699 25.19-179.405s41.984-104.038 75.571-144.998c33.587-40.96 75.776-73.114 126.566-96.461s110.182-35.021 178.176-35.021c112.23 0 200.704 30.72 265.421 92.16s102.81 147.456 114.278 258.048h-116.736c-2.458-36.045-9.83-69.632-22.118-100.762s-29.286-57.958-50.995-80.486-47.514-40.141-77.414-52.838c-29.901-12.698-64.102-19.046-102.605-19.046-52.429 0-97.485 9.83-135.168 29.491s-68.608 46.080-92.774 79.258-41.984 72.090-53.453 116.736c-11.469 44.646-17.203 91.955-17.203 141.926 0 45.875 5.734 90.112 17.203 132.71s29.286 80.486 53.453 113.664c24.166 33.178 54.886 59.597 92.16 79.258s82.125 29.491 134.554 29.491c61.44 0 114.483-15.565 159.13-46.694s73.523-77.824 86.63-140.083z" />
<glyph unicode="&#xe908;" glyph-name="sub-font-down" d="M45.801 873.239v-797.603h106.124v365.289h366.406v89.367h-366.406v253.58h417.792v89.367zM800.396 218.717c0-20.945 13.219-26.159 29.603-11.264l98.025 89.181c52.503 47.756 131.165-23.831 78.755-71.587l-226.397-204.428c-19.084-17.222-50.269-17.315-69.539 0l-228.073 204.428c-52.503 47.663 26.252 119.343 78.662 71.587l98.025-89.181c16.384-14.895 29.603-9.775 29.603 11.264v211.316c0 9.868 8.751 17.967 19.363 17.967h72.611c10.705 0 19.363-7.633 19.363-17.967v-211.316z" />
<glyph unicode="&#xe909;" glyph-name="sub-font-up" d="M45.801 873.239v-797.603h106.124v365.289h366.406v89.367h-366.406v253.58h417.792v89.367zM689.059 236.963c0 20.945-13.219 26.159-29.603 11.264l-98.025-89.181c-52.41-47.756-131.165 23.924-78.662 71.587l226.304 204.428c19.084 17.222 50.269 17.315 69.539 0l228.073-204.428c52.503-47.756-26.252-119.343-78.755-71.587l-97.932 89.181c-16.384 14.895-29.603 9.775-29.603-11.264v-211.316c0-9.961-8.751-17.967-19.363-17.967h-72.611c-10.705 0-19.363 7.633-19.363 17.967v211.316z" />
<glyph unicode="&#xe90a;" glyph-name="sub-italic" horiz-adv-x="455" d="M265.102 910.848l-204.8-974.848h129.707l204.8 974.848z" />
<glyph unicode="&#xe90b;" glyph-name="sub-bold" d="M584.363 910.848c46.421 0 88.747-4.096 126.976-12.288s70.997-21.618 98.304-40.277c27.307-18.66 48.469-43.577 63.488-74.411 15.019-30.948 22.528-69.177 22.528-114.688 0-49.266-11.15-90.112-33.451-122.88s-55.296-59.62-98.987-80.555c60.075-17.294 104.903-47.559 134.485-90.795 29.696-43.349 44.487-95.46 44.487-156.331 0-49.266-9.557-91.819-28.672-127.659-19.115-35.954-44.942-65.308-77.141-88.064-32.313-22.756-69.177-39.595-110.706-50.517-41.415-10.923-83.968-16.384-127.659-16.384h-472.405v974.848h458.752zM557.056 516.267c38.229 0 69.632 9.102 94.322 27.307 24.576 18.204 36.75 47.787 36.75 88.747 0 22.756-4.096 41.415-12.174 55.979-8.192 14.564-19.115 25.941-32.768 34.133s-29.355 13.881-47.104 16.953c-17.749 3.186-36.181 4.779-55.296 4.779h-200.704v-227.897h216.974zM569.344 102.571c21.049 0 40.96 2.162 60.075 6.144 19.115 4.096 35.84 11.036 50.517 20.594 14.45 9.557 26.055 22.528 34.816 38.912s12.971 37.319 12.971 62.805c0 50.062-14.108 85.788-42.325 107.179s-65.536 32.085-111.957 32.085h-233.472v-267.719h229.376z" />
<glyph unicode="&#xe90c;" glyph-name="sub-arrangement" d="M0 874.667c0 47.128 37.774 85.333 85.244 85.333h85.511c47.079 0 85.244-37.876 85.244-85.333 0-47.128-37.774-85.333-85.244-85.333h-85.511c-47.079 0-85.244 37.876-85.244 85.333zM0 448c0 47.128 37.774 85.333 85.244 85.333h85.511c47.079 0 85.244-37.876 85.244-85.333 0-47.128-37.774-85.333-85.244-85.333h-85.511c-47.079 0-85.244 37.876-85.244 85.333zM341.333 874.667c0 47.128 38.659 85.333 85.080 85.333h512.507c46.988 0 85.080-37.876 85.080-85.333 0-47.128-38.659-85.333-85.080-85.333h-512.507c-46.988 0-85.080 37.876-85.080 85.333zM341.333 448c0 47.128 38.659 85.333 85.080 85.333h512.507c46.988 0 85.080-37.876 85.080-85.333 0-47.128-38.659-85.333-85.080-85.333h-512.507c-46.988 0-85.080 37.876-85.080 85.333zM0 21.333c0 47.128 37.774 85.333 85.244 85.333h85.511c47.079 0 85.244-37.876 85.244-85.333 0-47.128-37.774-85.333-85.244-85.333h-85.511c-47.079 0-85.244 37.876-85.244 85.333zM341.333 21.333c0 47.128 38.659 85.333 85.080 85.333h512.507c46.988 0 85.080-37.876 85.080-85.333 0-47.128-38.659-85.333-85.080-85.333h-512.507c-46.988 0-85.080 37.876-85.080 85.333z" />
<glyph unicode="&#xe90d;" glyph-name="sub-underline" horiz-adv-x="717" d="M711.066 355.43v560.333h-116.736v-560.333c0-78.644-19.456-138.24-58.368-178.79s-95.641-60.826-170.189-60.826c-78.644 0-138.854 20.275-180.634 60.826s-62.669 100.147-62.669 178.79v560.333h-116.736v-560.333c0-117.146 31.744-202.547 95.232-256.205s151.756-80.486 264.806-80.486c110.593 0 195.789 28.057 255.59 84.173s89.702 140.287 89.702 252.518z" />
<glyph unicode="&#xe90e;" glyph-name="selectbutton-arrange" horiz-adv-x="1195" d="M683.776 883.2h-555.776c-28.245 0-51.2-22.955-51.2-51.2s22.955-51.2 51.2-51.2h555.776c28.245 0 51.2 22.955 51.2 51.2s-22.955 51.2-51.2 51.2zM560.725 456.533h-432.725c-28.245 0-51.2-22.955-51.2-51.2s22.955-51.2 51.2-51.2h432.725c28.245 0 51.2 22.955 51.2 51.2s-22.955 51.2-51.2 51.2zM448.427 115.2h-320.427c-28.245 0-51.2-22.955-51.2-51.2s22.955-51.2 51.2-51.2h320.427c28.245 0 51.2 22.955 51.2 51.2s-22.955 51.2-51.2 51.2zM1101.227 238.165c-19.371 19.2-52.992 19.285-72.363-0.085l-34.731-34.645v611.584c0 28.245-22.955 51.2-51.2 51.2s-51.2-22.955-51.2-51.2v-611.584l-34.645 34.816c-19.371 19.2-52.992 19.285-72.363-0.085-9.728-9.643-15.019-22.528-15.019-36.181s5.291-26.453 14.933-36.096l122.027-122.197c9.643-9.728 22.528-15.019 36.181-15.019s26.453 5.291 36.181 14.848l122.197 122.197c19.883 19.968 19.883 52.395 0 72.448z" />
<glyph unicode="&#xe90f;" glyph-name="selectbutton-line" horiz-adv-x="1463" d="M1440.993 604.945c29.201 27.795 29.201 72.65 0 100.003l-104.773 100.003c-28.908 27.795-75.718 27.795-104.626 0l-497.891-482.076-502.293 486.046c-29.201 27.795-76.012 27.795-104.92 0l-104.773-100.003c-28.908-27.354-28.908-72.208 0-100.003l659.306-636.346c29.201-27.354 76.012-27.354 104.92 0l655.050 632.375z" />
<glyph unicode="&#xe910;" glyph-name="selectbutton-select" horiz-adv-x="1170" d="M989.184 895.049l-443.538-727.040-302.958 174.665c-29.55 16.969-66.121 16.969-95.671-0.146s-47.835-48.859-47.689-82.944c0-34.231 18.286-65.829 47.982-82.798l384.146-220.891c45.056-25.746 102.4-10.679 129.17 33.792l491.666 806.473c19.895 31.89 19.163 72.558-1.755 103.863s-58.368 47.25-95.378 40.96c-3.365-0.731-6.437-1.317-9.655-2.194-23.698-6.729-43.886-22.382-56.32-43.739z" />
<glyph unicode="&#xe911;" glyph-name="selectbutton-soildclose" horiz-adv-x="2560" d="M118.118 960h2323.765c111.924 0 149.233-39.869 90.606-88.281l-1161.882-908.439c-18.025-16.868-51.588-27.28-87.941-27.28s-69.916 10.412-87.941 27.28l-1167.212 908.439c-58.627 48.412-21.319 88.281 90.606 88.281z" />
<glyph unicode="&#xe912;" glyph-name="calendar-approved" d="M512 960c-282.795 0-512-229.205-512-512s229.205-512 512-512 512 229.205 512 512-229.205 512-512 512zM768 192h-512v33.195h512v-33.195zM768 231.851h-512v122.027c0 42.496 33.28 76.971 74.923 77.653h99.157c18.603 0 33.963 15.275 33.963 35.157v87.637c0 25.856-8.363 51.115-24.32 70.315-14.763 17.237-23.723 40.533-23.723 65.024 0 56.405 45.397 102.229 100.437 99.499 48.64-2.645 88.917-43.776 91.563-94.208 1.28-25.856-7.083-49.749-21.76-68.267-16.64-20.651-26.283-45.824-26.283-72.363v-88.235c0-19.2 15.36-35.157 33.963-35.157h99.84c40.96-0.085 74.24-34.56 74.24-77.056v-122.027z" />
<glyph unicode="&#xe913;" glyph-name="calendar-meetng" d="M512 960c-282.752 0-512-229.248-512-512s229.248-512 512-512 512 229.248 512 512-229.248 512-512 512zM320.981 704c41.984 0 75.989-33.28 75.989-74.368s-34.005-74.368-75.989-74.368c-41.941 0-75.989 33.28-75.989 74.368s34.005 74.368 75.989 74.368zM496.171 291.115c-7.381-11.307-19.925-17.493-32.683-17.493-7.211 0-14.421 1.963-20.907 6.016-17.451 10.965-32.427 22.827-45.568 35.285v-122.965h-183.68v242.389c0 58.027 32.555 105.045 91.819 105.045 52.523 0 80.597-36.907 89.941-85.632 18.603-42.155 42.965-81.109 89.387-110.208 18.005-11.307 23.253-34.773 11.691-52.437zM703.061 704c41.941 0 75.947-33.28 75.947-74.368s-34.005-74.368-75.947-74.368c-41.984 0-76.032 33.28-75.989 74.368 0 41.088 34.048 74.368 75.989 74.368zM810.667 192h-183.637v122.923c-13.184-12.501-28.203-24.32-45.611-35.285-6.528-4.096-13.739-6.016-20.949-6.016-12.8 0-25.259 6.187-32.725 17.451-11.52 17.664-6.315 41.131 11.733 52.48 46.379 29.141 70.784 68.053 89.387 110.208 9.301 48.768 37.376 85.632 89.899 85.632 59.264 0 91.819-47.019 91.819-105.045v-242.347z" />
<glyph unicode="&#xe914;" glyph-name="calendar-location" d="M512 960c-201.435 0-365.714-161.609-365.714-359.79 0-158.537 226.231-380.709 322.341-496.567 9.289-12.215 27.867-21.358 43.374-21.358s34.085 6.107 43.374 21.358c96.11 115.858 322.341 337.993 322.341 496.567 0 198.181-164.279 359.79-365.714 359.79zM741.998 627.639c0-125.733-102.217-226.304-229.998-226.304s-229.998 100.571-229.998 226.304 102.217 226.304 229.998 226.304 229.998-100.571 229.998-226.304z" />
<glyph unicode="&#xe915;" d="M512-27.429c-64.219 0-126.537 12.581-185.125 37.449-56.613 23.845-107.447 58.149-151.040 101.815-43.593 43.593-77.897 94.427-101.888 151.040-24.795 58.661-37.376 120.905-37.376 185.125s12.581 126.464 37.376 185.051c23.918 56.539 58.222 107.447 101.888 151.113s94.501 77.897 151.113 101.888c117.321 49.591 252.928 49.591 370.176 0 56.539-23.918 107.447-58.222 151.040-101.888 43.593-43.52 77.824-94.354 101.888-151.040 24.795-58.807 37.376-121.051 37.376-185.125 0-64.219-12.581-126.464-37.449-185.125-23.918-56.613-58.222-107.447-101.815-151.040s-94.427-77.897-151.113-101.888c-58.587-24.795-120.832-37.376-185.051-37.376zM512 850.286c-54.345 0-107.008-10.679-156.599-31.598-47.909-20.261-90.917-49.298-127.927-86.235-36.937-36.937-65.975-80.018-86.235-127.927-20.846-49.445-31.525-102.107-31.525-156.526 0-54.345 10.606-107.081 31.598-156.672 20.261-47.835 49.298-90.843 86.235-127.781 36.937-37.010 79.945-65.975 127.854-86.235 99.035-41.984 214.089-41.911 313.198-0.073 47.909 20.261 90.917 49.298 127.854 86.309 37.010 36.937 65.975 79.945 86.235 127.781 20.919 49.591 31.598 102.327 31.598 156.672 0 54.272-10.679 106.935-31.671 156.599-20.261 47.982-49.298 90.99-86.162 127.854-36.937 37.010-80.018 65.975-127.854 86.235-49.591 20.919-102.254 31.598-156.599 31.598z" />
<glyph unicode="&#xe916;" d="M775.387 510.537c0-2.999-2.414-5.413-5.413-5.413h-86.528l-30.574-114.249h59.392c2.999 0 5.413-2.414 5.413-5.413v-86.967c0-2.999-2.414-5.486-5.413-5.486h-85.577l-29.989-111.689c-0.805-2.926-3.73-4.608-6.656-3.877l-84.041 22.601c-2.853 0.731-4.608 3.73-3.803 6.656l23.113 86.382h-109.641l-32.037-119.515c-0.658-2.414-2.853-4.023-5.266-4.023-0.439 0-0.951 0.073-1.39 0.219l-84.041 22.528c-1.39 0.293-2.633 1.17-3.291 2.414-0.731 1.243-0.951 2.706-0.512 4.169l25.234 94.208h-60.27c-2.999 0-5.413 2.414-5.413 5.486v86.894c0 2.999 2.414 5.413 5.413 5.413h86.455l30.574 114.176h-61.074c-2.999 0-5.413 2.414-5.413 5.413v86.967c0 2.999 2.414 5.413 5.413 5.413h87.333l29.915 111.689c0.805 2.926 3.73 4.608 6.656 3.877l84.041-22.528c1.39-0.366 2.56-1.243 3.291-2.56 0.731-1.097 0.878-2.56 0.512-3.95l-23.113-86.382h109.641l32.037 119.515c0.366 1.39 1.317 2.56 2.56 3.291s2.706 0.951 4.096 0.512l84.041-22.528c1.39-0.293 2.56-1.243 3.291-2.487s0.951-2.706 0.512-4.096l-25.161-94.208h60.27c2.999 0 5.413-2.414 5.413-5.413v-87.040z" />
<glyph unicode="&#xe917;" d="M441.856 390.875h109.714l30.574 114.249h-109.714z" />
<glyph unicode="&#xe918;" glyph-name="photo" d="M903.756-64h-783.512c-66.313 0-120.244 60.056-120.244 133.879v610.778c0 73.804 53.931 133.841 120.244 133.841h95.099l31.137 70.732c20.309 46.137 61.649 74.771 107.918 74.771h315.164c46.27 0 87.628-28.653 107.918-74.771l31.156-70.732h95.137c66.295 0 120.244-60.037 120.244-133.841v-610.816c-0.019-73.804-53.969-133.841-120.263-133.841zM120.244 738.645c-24.064 0-44.392-26.548-44.392-57.989v-610.778c0-31.441 20.328-58.027 44.392-58.027h783.512c24.064 0 44.392 26.548 44.392 57.989v610.816c0 31.422-20.328 57.989-44.392 57.989h-100.902c-26.927 0-50.821 16.194-62.312 42.268l-32.484 73.747c-8.021 18.185-22.756 29.487-38.495 29.487h-315.164c-15.739 0-30.473-11.302-38.495-29.487l-32.446-73.709c-11.529-26.112-35.404-42.306-62.331-42.306h-100.883zM512 117.874c-158.265 0-287.023 128.759-287.023 287.042 0 158.265 128.759 287.023 287.023 287.023 158.284 0 287.042-128.759 287.042-287.023 0-158.284-128.759-287.042-287.042-287.042zM512 635.051c-126.9 0-230.135-103.234-230.135-230.135s103.234-230.153 230.135-230.153c126.9 0 230.153 103.234 230.153 230.153 0 126.881-103.253 230.135-230.153 230.135zM512 256.645c-81.749 0-148.252 66.503-148.252 148.252s66.503 148.252 148.252 148.252c81.768 0 148.252-66.503 148.252-148.252s-66.484-148.252-148.252-148.252zM512 515.224c-60.833 0-110.327-49.493-110.327-110.327s49.493-110.327 110.327-110.327 110.327 49.493 110.327 110.327-49.493 110.327-110.327 110.327z" />
<glyph unicode="&#xe919;" horiz-adv-x="1103" d="M624.64 947.594l-279.316-237.253c-16.699-14.218-16.896-37.022-0.512-51.003l280.576-238.356c9.216-7.798 22.292-12.367 34.58-12.367s24.576 3.899 34.58 12.406c19.22 16.305 19.22 42.417 0 58.722l-211.141 179.358c-16.62 14.1-16.384 37.14 0 51.082l211.141 179.358c19.22 16.305 19.22 42.417 0 58.722-10.004 7.838-22.292 11.737-35.367 11.737-12.288 0-24.576-3.899-34.54-12.406z" />
<glyph unicode="&#xe91a;" horiz-adv-x="1103" d="M68.135 123.865v89.403h74.831c8.153 0 15.833-0.473 23.040-1.378s13.588-2.954 19.102-6.105c5.514-3.151 9.846-7.601 12.997-13.391s4.726-13.666 4.726-23.631c0-14.966-4.647-26.191-13.982-33.674s-24.615-11.225-45.883-11.225h-74.831zM30.72 244.775v-281.206h135.877c13.903 0 26.191 2.284 36.825 6.892s19.574 10.634 26.782 18.117c7.207 7.483 12.682 16.069 16.345 25.797s5.514 19.692 5.514 29.932c0 17.329-4.608 32.020-13.785 44.111s-22.449 19.968-39.778 23.631v0.788c13.391 5.238 23.71 13.312 30.917 24.222s10.831 23.828 10.831 38.794c0 14.178-3.23 26.112-9.649 35.84s-14.257 17.329-23.434 22.843c-4.214 2.639-9.255 4.608-15.163 5.908s-12.288 2.284-19.102 2.954-13.706 1.063-20.677 1.182c-6.971 0.118-13.47 0.197-19.495 0.197h-102.006zM68.135-4.923v97.28h85.465c7.877 0 15.478-0.709 22.843-2.166s13.863-3.938 19.495-7.483 10.161-8.35 13.588-14.375 5.12-13.666 5.12-22.843c0-15.754-4.647-28.081-13.982-37.022s-22.252-13.391-38.794-13.391h-93.735zM348.948 79.754l47.655 131.151h0.788l46.868-131.151h-95.311zM376.911 244.775l-109.489-281.206h38.203l31.508 84.677h118.942l30.72-84.677h41.354l-109.883 281.206h-41.354zM753.428 160.098h37.415c-2.087 14.966-6.577 28.16-13.391 39.582s-15.36 20.953-25.6 28.554c-10.24 7.601-21.937 13.391-35.052 17.329s-27.057 5.908-41.748 5.908c-21.543 0-40.645-3.86-57.305-11.618s-30.602-18.314-41.748-31.705-19.614-29.066-25.403-47.065c-5.79-17.999-8.665-37.218-8.665-57.698s2.678-39.66 8.074-57.502c5.396-17.841 13.47-33.359 24.222-46.474s24.3-23.434 40.566-30.917 35.328-11.225 57.108-11.225c35.958 0 64.315 9.846 85.071 29.538s32.965 47.262 36.628 82.708h-37.415c-0.788-11.54-3.151-22.331-7.089-32.295s-9.374-18.59-16.345-25.797c-6.971-7.207-15.242-12.879-24.812-16.935s-20.559-6.105-32.886-6.105c-16.817 0-31.232 3.151-43.323 9.452s-21.977 14.769-29.735 25.403c-7.759 10.634-13.47 23.119-17.132 37.415s-5.514 29.46-5.514 45.489c0 14.69 1.851 28.869 5.514 42.535s9.374 25.797 17.132 36.431c7.759 10.634 17.605 19.102 29.538 25.403s26.309 9.452 43.126 9.452c19.692 0 36.706-5.002 51.003-14.966s23.552-24.93 27.766-44.898zM840.074 244.775v-281.206h37.415v98.462l46.868 43.717 101.612-142.178h47.262l-123.274 167.778 118.548 113.428h-48.443l-142.572-140.209v140.209h-37.415z" />
<glyph unicode="&#xe91b;" glyph-name="page-esc-small" d="M864.768 940.288l-352.768-352.768-352.768 352.768c-26.368 26.368-67.072 26.368-93.44 0l-46.080-46.080c-26.368-26.368-26.368-67.072 0-93.44l352.768-352.768-352.768-352.768c-26.368-26.368-26.368-67.072 0-93.44l46.080-46.080c26.368-26.368 67.072-26.368 93.44 0l352.768 352.768 352.768-352.768c26.368-26.368 67.072-26.368 93.44 0l46.080 46.080c26.368 26.368 26.368 67.072 0 93.44l-352.768 352.768 352.768 352.768c26.368 26.368 26.368 67.072 0 93.44l-46.080 46.080c-26.368 26.24-67.2 26.24-93.44 0z" />
<glyph unicode="&#xe91c;" glyph-name="page-esc" horiz-adv-x="709" d="M548.549 960c-10.437 0-20.874-3.899-29.342-12.406l-204.13-204.249-204.761 204.249c-7.838 7.838-18.905 12.406-29.342 12.406s-20.874-3.899-29.381-12.406v0c-16.305-16.305-16.305-42.417 0-58.722l204.8-204.249-204.13-204.879c-16.305-16.305-16.305-42.417 0-58.722v0c7.838-7.838 18.905-12.406 29.342-12.406s20.874 3.899 29.342 12.406l204.13 204.879 204.761-204.879c7.838-7.838 18.905-12.406 29.342-12.406s20.874 3.899 29.342 12.406v0c16.305 16.305 16.305 42.417 0 58.722l-204.761 204.879 204.761 204.879c16.305 16.305 16.305 42.417 0 58.722v0c-8.468 7.877-18.905 11.776-29.972 11.776v0zM0 244.382v-281.206h195.348v31.508h-157.932v97.28h146.117v31.508h-146.117v89.403h156.751v31.508h-194.166zM386.875 162.068h35.446c-0.512 15.478-3.466 28.83-8.862 39.975s-12.721 20.401-22.055 27.766c-9.334 7.365-20.165 12.721-32.492 16.148s-25.718 5.12-40.172 5.12c-12.879 0-25.403-1.654-37.612-4.923s-23.119-8.271-32.689-14.966c-9.57-6.695-17.25-15.242-23.040-25.6s-8.665-22.646-8.665-36.825c0-12.879 2.56-23.552 7.68-32.098s11.934-15.478 20.48-20.874 18.196-9.728 28.948-12.997c10.752-3.269 21.74-6.183 32.886-8.665s22.134-4.923 32.886-7.286c10.752-2.363 20.401-5.435 28.948-9.255s15.36-8.743 20.48-14.769c5.12-6.026 7.68-13.903 7.68-23.631 0-10.24-2.087-18.629-6.302-25.206s-9.728-11.737-16.542-15.557c-6.814-3.82-14.494-6.498-23.040-8.074s-17.014-2.363-25.403-2.363c-10.516 0-20.756 1.3-30.72 3.938s-18.708 6.695-26.191 12.209c-7.483 5.514-13.509 12.524-18.117 21.071s-6.892 18.708-6.892 30.523h-35.446c0-17.054 3.072-31.823 9.255-44.308s14.572-22.725 25.206-30.72 22.961-13.982 37.022-17.92 28.948-5.908 44.702-5.908c12.879 0 25.797 1.497 38.794 4.529s24.734 7.877 35.249 14.572c10.516 6.695 19.102 15.36 25.797 25.994s10.043 23.434 10.043 38.4c0 13.903-2.56 25.482-7.68 34.658s-11.934 16.817-20.48 22.843c-8.546 6.026-18.196 10.831-28.948 14.375s-21.74 6.617-32.886 9.255c-11.146 2.639-22.134 5.041-32.886 7.286s-20.401 5.041-28.948 8.468c-8.546 3.426-15.36 7.798-20.48 13.194s-7.68 12.406-7.68 21.071c0 9.177 1.772 16.857 5.317 23.040s8.271 11.106 14.178 14.769c5.908 3.663 12.682 6.302 20.283 7.877s15.36 2.363 23.237 2.363c19.417 0 35.367-4.529 47.852-13.588s19.771-23.71 21.858-43.914zM660.756 159.705h37.415c-2.087 14.966-6.577 28.16-13.391 39.582s-15.36 20.953-25.6 28.554c-10.24 7.601-21.937 13.391-35.052 17.329s-27.057 5.908-41.748 5.908c-21.543 0-40.645-3.86-57.305-11.618s-30.602-18.314-41.748-31.705-19.614-29.066-25.403-47.065-8.665-37.218-8.665-57.698 2.678-39.66 8.074-57.502c5.396-17.841 13.47-33.359 24.222-46.474s24.3-23.434 40.566-30.917c16.266-7.483 35.328-11.225 57.108-11.225 35.958 0 64.315 9.846 85.071 29.538s32.965 47.262 36.628 82.708h-37.415c-0.788-11.54-3.151-22.331-7.089-32.295s-9.374-18.59-16.345-25.797c-6.971-7.207-15.242-12.879-24.812-16.935s-20.559-6.105-32.886-6.105c-16.817 0-31.232 3.151-43.323 9.452s-21.977 14.769-29.735 25.403-13.47 23.119-17.132 37.415c-3.663 14.297-5.514 29.46-5.514 45.489 0 14.69 1.851 28.869 5.514 42.535s9.374 25.797 17.132 36.431c7.759 10.634 17.605 19.102 29.538 25.403s26.309 9.452 43.126 9.452c19.692 0 36.706-5.002 51.003-14.966s23.552-24.93 27.766-44.898z" />
<glyph unicode="&#xe91d;" glyph-name="page-next-small" d="M512 960c-282.752 0-512-229.248-512-512s229.248-512 512-512 512 229.248 512 512-229.248 512-512 512zM626.112 245.568l-49.728-40.256c-9.152-7.424-22.592-5.952-29.952 3.072l-167.936 207.36c-13.376 16.512-11.776 31.552-0.256 45.376l160.576 213.056c7.040 9.408 20.352 11.264 29.824 4.16l51.136-38.528c9.408-7.104 11.264-20.48 4.224-29.824l-128-169.856 133.312-164.608c7.424-9.088 6.016-22.464-3.2-29.952z" />
<glyph unicode="&#xe91e;" glyph-name="page-smallboard" horiz-adv-x="512" d="M204.971 766.549c0 19.2-12.117 23.979-27.136 10.325l-89.856-81.749c-48.043-43.776-120.235 21.931-72.107 65.621l207.445 187.392c17.493 15.787 46.080 15.872 63.744 0l209.067-187.392c48.128-43.776-24.064-109.397-72.192-65.621l-89.771 81.749c-15.019 13.653-27.136 8.96-27.136-10.325v-193.707c0-9.131-8.021-16.469-17.749-16.469h-66.56c-9.813 0-17.749 6.997-17.749 16.469v193.707zM307.029 152.491c0-19.2 12.117-23.979 27.136-10.325l89.856 81.749c48.128 43.776 120.235-21.845 72.192-65.621l-207.445-187.392c-17.493-15.787-46.080-15.872-63.744 0l-209.067 187.392c-48.128 43.776 24.064 109.397 72.192 65.621l89.856-81.749c15.019-13.653 27.136-8.96 27.136 10.325v193.707c-0.171 9.045 7.851 16.469 17.579 16.469h66.56c9.813 0 17.749-6.997 17.749-16.469v-193.707z" />
<glyph unicode="&#xe91f;" glyph-name="homepage-news" horiz-adv-x="975" d="M157.871 808.485c39.885-27.246 82.917-48.99 127.918-65.499 26.943 76.101 64.472 148.382 111.459 207.469-96.868-18.478-183.656-65.6-251.158-132.277l11.78-9.694zM270.525 487.993h201.495v185.743c-56.462 1.515-111.914 10.232-165.093 26.472-22.147-71.759-34.601-145.387-36.401-212.215zM670.76 700.218c-53.197-16.257-108.632-24.974-165.077-26.472v-185.76h201.495c-1.801 66.845-14.271 140.473-36.418 212.232zM472.020 707.398v251.393c-8.33-0.286-16.61-0.791-24.823-1.481-55.822-59.743-99.662-139.884-129.736-225.173 49.73-15.062 101.665-23.241 154.558-24.739zM832.312 817.502c-67.603 67.047-154.659 114.404-251.831 132.95 46.936-59.070 84.465-131.301 111.392-207.368 45.287 16.644 88.689 38.623 129.13 66.29l11.309 8.128zM707.21 246.342c46.532-17.452 91.146-40.272 132.798-68.781l23.207-19.067c67.535 80.712 109.423 183.521 113.243 295.839h-235.641c-1.683-65.92-13.026-137.595-33.608-207.991zM275.257 711.144c-48.249 17.637-94.495 40.979-137.561 70.463l-14.692 12.066c-72.5-82.143-117.787-188.738-121.775-305.684h235.641c1.818 70.682 14.944 147.945 38.387 223.154zM505.678 707.398c52.843 1.498 104.728 9.677 154.525 24.806-30.057 85.256-73.88 165.363-129.685 225.106-8.229 0.69-16.509 1.195-24.84 1.464v-251.376zM472.020-16.454v268.205c-54.711-1.531-108.43-10.283-159.843-26.439 30.124-90.894 75.899-177.009 135.020-240.286 8.213-0.707 16.493-1.195 24.823-1.481zM280.647 214.253c-43.402-16.425-85.037-37.849-123.963-64.472l-20.902-15.028c68.882-72.247 159.574-123.441 261.457-142.879-50.033 62.941-89.363 140.843-116.592 222.38zM819.827 150.672c-38.354 26.22-79.602 47.391-122.751 63.681-27.213-81.571-66.559-159.506-116.626-222.481 101.294 19.32 191.532 70.043 260.262 141.634l-20.885 17.166zM270.494 246.314c-20.582 70.413-31.942 142.088-33.625 208.025h-235.641c3.82-111.627 45.169-213.881 111.981-294.375l24.15 17.368c41.82 28.609 86.535 51.497 133.135 68.982zM840.336 781.829c-43.234-29.586-89.581-52.978-137.898-70.665 23.443-75.226 36.57-152.489 38.387-223.171h235.641c-3.972 116.508-48.956 222.733-120.968 304.741l-15.163-10.905zM505.678 454.335v-168.914c58.161-1.548 115.229-10.804 169.856-27.97 19.286 66.879 29.973 134.818 31.639 196.884h-201.495zM472.020 454.335h-201.495c1.666-62.083 12.353-130.022 31.639-196.901 54.661 17.183 111.728 26.439 169.856 27.987v168.914zM505.678 251.76v-268.222c8.33 0.286 16.61 0.791 24.823 1.481 59.137 63.294 104.929 149.442 135.037 240.353-51.329 16.089-105.064 24.84-159.86 26.388z" />
<glyph unicode="&#xe920;" glyph-name="homepage-notification" horiz-adv-x="922" d="M563.407 38.656c0-84.838-45.763-102.4-102.236-102.4-56.422 0-102.185 17.562-102.185 102.4h204.421zM461.786 960c89.578 0 47.659-127.027 70.105-134.246 129.038-41.472 223.689-123.341 223.689-235.827 0-91.136 26.443-305.254 26.443-305.254s95.164-97.741 130.985-142.541c23.010-28.774-7.482-52.429-7.482-52.429l-894.757 1.126c0 0-25.418 28.723 1.845 61.389 35.872 42.854 126.834 132.966 126.834 132.966s5.381 213.709 5.381 304.742c0 116.941 102.39 204.954 239.217 240.333 49.248 12.698-11.889 129.741 77.74 129.741z" />
<glyph unicode="&#xe921;" glyph-name="homepage-active" d="M0 755.239c0 113.086 91.774 204.761 204.761 204.761h614.479c113.086 0 204.761-91.774 204.761-204.761v-614.479c0-113.086-91.774-204.761-204.761-204.761h-614.479c-113.086 0-204.761 91.774-204.761 204.761v614.479zM512 192c141.385 0 256 114.615 256 256s-114.615 256-256 256c-141.385 0-256-114.615-256-256s114.615-256 256-256z" />
<glyph unicode="&#xe922;" glyph-name="homepage-attention" horiz-adv-x="717" d="M522.702 83.968c2.565 32.399 6.209 73.881 10.566 110.911-55.628-5.082-115.248-8.511-174.868-8.511-62.866 0-125.733 3.812-183.919 9.356 4.286-38.261 8.255-79.948 11.127-111.756h337.094zM519.443 40.058c-0.548-7.936-0.838-12.512-0.838-12.512s-57.19-91.546-160.205-91.546c-103.014 0-168.243 95.437-168.243 95.437s-0.273 3.355-0.774 9.315c53.947-4.791 111.482-7.984 169.018-7.984 54.709 0 109.419 2.887 161.043 7.29zM539.013 237.568c3.227 20.5 6.699 36.614 10.312 44.442 121.139 53.862 167.475 179.098 167.475 324.915 0 195.021-160.461 353.075-358.4 353.075s-358.4-158.054-358.4-353.075c0-143.923 42.394-267.674 162.048-322.714 2.375-11.171 4.888-27.531 7.395-46.643h369.57z" />
<glyph unicode="&#xe923;" glyph-name="homepage-calendar" horiz-adv-x="922" d="M204.8 883.098c0 42.496 34.099 76.902 76.8 76.902 42.394 0 76.8-34.355 76.8-76.902v-204.646c0-42.445-34.099-76.851-76.8-76.851-42.394 0-76.8 34.355-76.8 76.902v204.595zM563.2 883.098c0 42.496 34.099 76.902 76.8 76.902 42.394 0 76.8-34.355 76.8-76.902v-204.646c0-42.445-34.099-76.851-76.8-76.851-42.394 0-76.8 34.355-76.8 76.902v204.595zM819.456 755.2h-51.456v-76.339c0-70.963-56.832-128.461-128-128.461-70.707 0-128 56.934-128 128.461v76.339h-102.4v-76.339c0-70.963-56.832-128.461-128-128.461-70.707 0-128 56.934-128 128.461v76.339h-51.456c-56.422 0-102.144-45.722-102.144-102.093v-615.014c0-56.269 45.722-102.093 102.144-102.093h717.312c56.422 0 102.144 45.722 102.144 102.093v615.014c0 56.269-45.722 102.093-102.144 102.093zM102.4 371.2c0 42.394 34.406 76.8 77.107 76.8h408.934c42.65 0 77.158-34.099 77.158-76.8 0-42.394-34.406-76.8-77.107-76.8h-408.986c-42.598 0-77.107 34.099-77.107 76.8zM690.944 38.4h-255.488c-42.547 0-77.056 34.099-77.056 76.8 0 42.394 34.202 76.8 77.056 76.8h255.488c42.547 0 77.056-34.099 77.056-76.8 0-42.394-34.202-76.8-77.056-76.8z" />
<glyph unicode="&#xe924;" glyph-name="homepage-chat" d="M0 732.692c0 125.539 101.929 227.308 227.259 227.308h569.482c125.512 0 227.259-101.984 227.259-227.308v-313.384c0-125.539-101.319-227.308-228.010-227.308h-1.465l-61.094-256-164.542 256h-340.778c-125.982 0-228.111 101.984-228.111 227.308v313.384z" />
<glyph unicode="&#xe925;" glyph-name="homepage-contact" horiz-adv-x="922" d="M204.757 168.818c-2.703 9.058-2.491 19.451 0 29.667v43.488l-102.335-1.893v105.622l102.335-3.529v155.083l-102.335-0.716v102.195l102.335 0.153v154.674l-102.335-1.739v106.134c0 56.366 46.174 102.042 103.123 102.042h612.937c56.95 0 103.118-45.676 103.118-102.042v-819.916c0-56.366-46.169-102.042-103.118-102.042h-612.937c-56.95 0-103.123 45.676-103.123 102.042v51.814l102.335 0.153v78.808zM0 719.498h153.672v-52.172h-153.672v52.172zM0 458.486h153.672v-52.223h-153.672v52.223zM0 197.422h153.672v-52.223h-153.672v52.223zM204.757 168.818c4.647-15.572 17.912-27.199 43.037-27.199h528.669c64.389 0 46.803 66.954 14.061 99.791-32.737 32.786-182.812 87.055-182.812 87.055l-28.173 31.15c0 0 61.135 98.768 61.135 190.836 0 92.017-52.319 153.702-125.222 153.702-72.914 0-131.951-61.481-131.951-157.641s58.74-186.898 58.74-186.898l-25.686-31.15c0 0-145.986-63.629-182.817-87.055-14.1-8.968-24.781-25.695-28.981-42.925v-29.667z" />
<glyph unicode="&#xe926;" glyph-name="homepage-folder" horiz-adv-x="878" d="M49.036 916.844h98.073c27.068 0 49.036-21.905 49.036-49.005v-882.098c0-27.051-21.968-49.005-49.036-49.005h-98.073c-27.068 0-49.036 21.954-49.036 49.005v882.098c0 27.1 21.968 49.005 49.036 49.005zM294.218 916.844h98.073c27.068 0 49.036-21.905 49.036-49.005v-882.098c0-27.051-21.968-49.005-49.036-49.005h-98.073c-27.068 0-49.036 21.954-49.036 49.005v882.098c0 27.1 21.968 49.005 49.036 49.005zM533.858 895.085l95.817 20.925c26.48 5.783 52.616-10.977 58.402-37.391l188.495-861.761c5.786-26.414-10.984-52.534-37.415-58.316l-95.817-20.974c-26.48-5.783-52.616 10.977-58.402 37.44l-188.495 861.712c-5.786 26.463 10.984 52.583 37.415 58.365z" />
<glyph unicode="&#xe927;" glyph-name="homepage-more" d="M512 960c-282.778 0-512-229.222-512-512s229.222-512 512-512 512 229.222 512 512-229.222 512-512 512zM204.8 345.6c-56.576 0-102.4 45.824-102.4 102.4s45.824 102.4 102.4 102.4 102.4-45.824 102.4-102.4-45.824-102.4-102.4-102.4zM512 345.6c-56.576 0-102.4 45.824-102.4 102.4s45.824 102.4 102.4 102.4 102.4-45.824 102.4-102.4-45.824-102.4-102.4-102.4zM819.2 345.6c-56.576 0-102.4 45.824-102.4 102.4s45.824 102.4 102.4 102.4 102.4-45.824 102.4-102.4-45.824-102.4-102.4-102.4z" />
<glyph unicode="&#xe928;" d="M435.648 141.888c168.768-42.112 340.352 60.992 382.464 229.76s-60.992 340.352-229.824 382.464c-11.776 2.944-23.68-4.224-26.624-16-2.944-11.84 4.224-23.744 16-26.688 145.28-36.224 233.92-183.872 197.76-329.088-36.224-145.216-183.808-233.92-329.088-197.76-145.28 36.224-233.92 183.872-197.76 329.088 2.944 11.776-4.224 23.744-16 26.688s-23.744-4.224-26.688-16.064c-42.112-168.768 60.992-340.352 229.76-382.4z" />
<glyph unicode="&#xe929;" d="M512 119.68c-0.064 0-0.064 0 0 0-26.688 0-53.376 3.264-79.424 9.728-84.928 21.184-156.608 74.304-201.856 149.568-45.248 75.2-58.432 163.456-37.248 248.448 4.544 18.304 24 29.824 42.176 25.344 18.624-4.608 30.016-23.552 25.344-42.176-34.56-138.368 49.984-279.040 188.352-313.536 20.544-5.12 41.536-7.744 62.528-7.744 118.976 0.064 222.272 80.704 251.008 196.16 16.768 66.88 6.336 136.384-29.312 195.712-35.648 59.264-92.096 101.12-159.040 117.824-9.024 2.24-16.64 7.872-21.376 15.808-4.8 7.936-6.208 17.344-3.968 26.368 4.544 18.24 23.744 29.888 42.176 25.408 175.68-43.84 282.944-222.336 239.168-398.016-36.544-146.56-167.616-248.896-318.528-248.896zM228.608 527.936c-5.952 0-9.344-2.752-10.368-6.72-19.52-78.336-7.296-159.68 34.432-229.12 41.664-69.376 107.776-118.336 186.112-137.792 24-6.016 48.64-9.088 73.216-9.088 139.264 0 260.032 94.4 293.76 229.568 40.384 161.92-58.56 326.528-220.48 366.912-6.72 0.128-10.24-2.56-11.2-6.72-0.64-2.368-0.256-4.864 0.96-6.976 1.344-2.112 3.328-3.584 5.696-4.16 73.6-18.368 135.68-64.32 174.784-129.472s50.56-141.568 32.256-215.168c-31.616-126.848-145.088-215.488-275.904-215.488-23.040 0-46.144 2.816-68.736 8.448-152 37.952-244.864 192.512-206.976 344.576 1.216 4.928-1.792 9.92-6.72 11.2-0.256 0-0.512 0-0.832 0z" />
<glyph unicode="&#xe92a;" d="M406.016 514.496c-40.384-62.144-22.656-145.6 39.488-185.92s145.6-22.656 185.92 39.488c2.816 4.352 1.6 10.176-2.752 12.992s-10.112 1.6-12.928-2.752c-34.752-53.504-106.496-68.736-160-33.984s-68.736 106.496-33.984 160c34.752 53.504 106.496 68.736 160 33.984 4.352-2.816 10.176-1.6 12.992 2.752s1.6 10.176-2.752 12.992c-62.208 40.32-145.664 22.592-185.984-39.552z" />
<glyph unicode="&#xe92b;" d="M518.528 300.48c-27.2 0-53.632 7.872-76.48 22.656-65.088 42.368-83.712 129.728-41.408 194.816 26.048 40.128 70.272 64.128 118.336 64.128 27.136 0 53.568-7.872 76.48-22.656 7.232-4.736 9.344-14.528 4.608-21.824-4.608-7.168-14.784-9.28-21.888-4.672-17.664 11.52-38.208 17.6-59.264 17.6-37.312 0-71.616-18.624-91.84-49.728-15.872-24.448-21.248-53.632-15.168-82.24 6.080-28.544 22.848-53.056 47.296-68.864 17.728-11.52 38.272-17.6 59.392-17.6 37.248 0 71.552 18.624 91.776 49.728 4.672 7.040 14.784 9.216 21.76 4.608 7.296-4.736 9.344-14.528 4.672-21.824-26.048-40.192-70.272-64.128-118.272-64.128zM518.976 569.28c-43.712 0-83.904-21.76-107.584-58.304-38.464-59.136-21.568-138.624 37.632-177.024 20.736-13.504 44.736-20.608 69.504-20.608 43.712 0 83.904 21.76 107.584 58.24 0.832 1.344 0.448 3.2-0.896 4.096-1.216 0.896-3.2 0.512-4.224-0.96-22.528-34.688-60.8-55.488-102.464-55.488-23.616 0-46.528 6.784-66.368 19.712-27.2 17.664-45.952 45.056-52.8 76.992-6.784 31.936-0.704 64.512 16.96 91.84 22.592 34.752 60.928 55.552 102.592 55.552 23.552 0 46.464-6.784 66.304-19.648 1.344-0.96 3.2-0.512 4.096 0.832s0.512 3.264-0.896 4.096c-20.736 13.504-44.736 20.672-69.44 20.672z" />
<glyph unicode="&#xe92c;" d="M512 896c-247.040 0-448-200.96-448-448s200.96-448 448-448c17.28 0 31.232 14.016 31.232 31.232 0 17.28-14.016 31.232-31.232 31.232-212.608 0-385.472 172.928-385.472 385.536 0 212.544 172.928 385.472 385.472 385.472s385.472-172.928 385.472-385.472c0-17.28 14.016-31.232 31.232-31.232 17.28 0 31.296 13.952 31.296 31.232 0 247.040-200.96 448-448 448z" />
<glyph unicode="&#xe92d;" d="M512-6.4c-250.56 0-454.4 203.84-454.4 454.4s203.84 454.4 454.4 454.4c250.56 0 454.4-203.84 454.4-454.4 0-20.736-16.896-37.632-37.632-37.632s-37.632 16.896-37.632 37.632c0 209.024-170.048 379.072-379.072 379.072s-379.136-170.048-379.136-379.072c0-209.088 170.048-379.136 379.072-379.136 20.736 0 37.568-16.896 37.568-37.632s-16.768-37.632-37.568-37.632zM512 889.6c-243.52 0-441.6-198.080-441.6-441.6s198.080-441.6 441.6-441.6c13.696 0 24.832 11.2 24.832 24.896s-11.136 24.832-24.832 24.832c-216.064 0-391.936 175.744-391.936 391.872 0 216.064 175.808 391.936 391.936 391.936s391.872-175.872 391.872-391.936c0-13.696 11.2-24.832 24.896-24.832s24.832 11.136 24.832 24.832c0 243.52-198.080 441.6-441.6 441.6z" />
<glyph unicode="&#xe92e;" glyph-name="homepage-cn" horiz-adv-x="1707" d="M666.624 603.136c-6.4 24.661-15.104 47.36-26.283 68.096-11.179 20.651-25.515 38.571-43.008 53.76-17.579 15.104-38.059 26.88-61.525 35.243-23.552 8.363-50.773 12.544-81.835 12.544-45.397 0-84.651-9.131-117.675-27.392-33.024-18.347-59.904-42.923-80.64-73.557s-36.011-65.536-45.995-104.533c-9.984-39.083-14.933-78.848-14.933-119.467s4.949-80.384 14.933-119.467c9.984-38.997 25.259-73.813 45.995-104.533s47.616-55.125 80.64-73.472 72.277-27.477 117.675-27.477c33.451 0 62.891 5.717 88.405 17.237 25.515 11.605 47.36 27.477 65.707 47.872s32.683 44.032 43.008 71.083 17.152 56.149 20.309 87.125h145.749c-3.243-50.944-14.165-97.536-32.853-139.776s-44.032-78.677-75.861-109.312c-31.829-30.635-69.291-54.357-112.299-71.083-43.008-16.64-90.368-25.088-142.165-25.088-63.744 0-120.832 11.776-171.435 35.243s-93.355 55.552-128.427 96.171c-35.072 40.704-61.952 87.979-80.64 142.165s-28.075 111.957-28.075 173.227c0 60.501 9.301 117.845 28.075 172.032s45.568 101.547 80.64 142.165c35.072 40.704 77.824 72.875 128.427 96.853 50.603 23.808 107.691 35.84 171.435 35.84 47.787 0 92.757-6.571 134.997-19.712s79.445-32.256 111.701-57.344 58.368-55.552 78.251-91.392 32.256-76.8 37.035-122.965h-149.333zM947.371 874.325h157.696l389.461-628.395h2.389v628.395h142.165v-852.992h-157.781l-388.181 627.2h-3.669v-627.2h-142.165v852.992z" />
<glyph unicode="&#xe92f;" glyph-name="homepage-en" horiz-adv-x="1741" d="M6.554 959.59h736.87v-154.829h-557.67v-268.083h516.096v-146.227h-516.096v-299.725h567.706v-154.726h-746.906v1023.59zM902.554 959.59h189.235l467.251-754.074h2.867v754.074h170.598v-1023.59h-189.235l-466.022 752.64h-4.096v-752.64h-170.598v1023.59z" />
<glyph unicode="&#xe930;" glyph-name="homepage-setting" d="M1021.696 499.541c0 17.195-14.891 30.933-33.237 30.933h-37.803c-16.043 0-29.781 11.435-34.347 26.325-9.173 34.347-22.912 66.432-40.107 96.213-8.021 13.739-5.717 32.085 5.717 43.52l27.477 27.477c12.587 12.587 13.739 33.237 2.304 46.976-21.76 26.325-46.976 51.541-73.301 73.301-13.739 11.435-34.347 10.325-46.976-2.304l-27.477-27.477c-11.435-11.435-28.629-13.739-43.52-5.717-29.781 17.195-61.867 30.933-96.213 40.107-16.043 4.565-26.325 18.347-26.325 34.347v38.955c0 18.347-13.739 33.237-32.085 35.499-17.152 2.304-34.347 2.304-51.499 2.304-17.195 0-34.347-1.152-51.541-2.304-18.347-2.304-32.085-17.195-32.085-35.499v-37.803c0-16.043-11.435-29.781-26.325-34.347-34.347-9.173-66.432-22.912-96.213-40.107-13.781-8.021-32.085-5.717-43.563 5.717l-27.477 27.52c-12.587 12.587-33.195 13.739-46.976 2.261-26.325-21.76-51.541-46.976-73.301-73.301-11.435-13.739-10.283-34.347 2.304-46.933l27.477-27.477c11.435-11.435 13.739-28.629 5.717-43.52-17.195-29.781-30.933-61.867-40.107-96.213-4.565-16.043-18.347-26.325-34.347-26.325h-40.107c-18.347 0-33.237-13.739-35.499-32.085-2.261-17.237-2.261-34.389-2.261-51.584s1.152-34.347 2.304-51.541c2.304-18.347 17.195-32.085 35.499-32.085h37.803c16.043 0 29.781-11.435 34.347-26.325 9.173-34.347 22.912-66.432 40.107-96.213 8.021-13.739 5.717-32.085-5.717-43.52l-27.477-27.477c-12.587-12.587-13.739-33.237-2.304-46.976 21.76-26.325 46.976-51.541 73.301-73.301 13.739-11.435 34.347-10.325 46.976 2.304l27.477 27.477c11.435 11.435 28.629 13.739 43.52 5.717 29.781-17.195 61.867-30.933 96.213-40.107 16.043-4.565 26.325-18.347 26.325-34.347v-37.803c0-18.347 13.739-33.237 32.085-35.499 17.195-2.304 34.347-2.304 51.541-2.304s34.347 1.152 51.541 2.304c18.347 2.304 32.085 17.195 32.085 35.499v37.803c0 16.043 11.435 29.781 26.325 34.347 34.347 9.173 66.432 22.912 96.213 40.107 13.739 8.021 32.085 5.717 43.52-5.717l27.477-27.477c12.587-12.587 33.237-13.739 46.976-2.304 26.325 21.76 51.541 46.976 73.301 73.301 11.435 13.739 10.325 34.347-2.304 46.976l-27.477 27.477c-11.435 11.435-13.739 28.629-5.717 43.52 17.195 29.781 30.933 61.867 40.107 96.213 4.565 16.043 18.347 26.325 34.347 26.325h37.803c18.347 0 33.237 13.739 35.499 32.085 2.304 17.195 2.304 34.347 2.304 51.541s-1.152 34.347-2.304 51.541zM513.152 242.987c-112.256 0-203.904 91.648-203.904 203.904s91.648 203.904 203.904 203.904 203.904-91.648 203.904-203.904-91.648-203.904-203.904-203.904z" />
<glyph unicode="&#xe931;" glyph-name="common-mission" horiz-adv-x="768" d="M655.808 160h-415.616c-44.224 0-80.192 36.864-80.192 82.24v603.136c0 45.312 35.968 82.24 80.192 82.24l282.56-0.192c9.344-1.664 15.168-4.288 20.224-8l5.504-4.736 180.416-182.144c3.584-6.208 4.288-7.104 5.888-13.952l1.216-9.6v-466.688c0-45.44-35.968-82.304-80.192-82.304zM508.928 863.744l-268.736-0.128c-8.768 0-16.192-8.32-16.192-18.24v-603.136c0-9.856 7.424-18.24 16.192-18.24h415.616c8.768 0 16.192 8.384 16.192 18.24v458.432l-163.072 163.072zM527.808-32h-415.616c-44.224 0-80.192 36.864-80.192 82.24v603.136c0 45.312 35.968 82.24 80.192 82.24h111.808v-493.376c0-9.856 7.424-18.24 16.192-18.24h367.808v-173.76c0-45.376-35.968-82.24-80.192-82.24zM112.192 671.616c-8.768 0-16.192-8.32-16.192-18.24v-603.136c0-9.856 7.424-18.24 16.192-18.24h415.616c8.768 0 16.192 8.384 16.192 18.24v109.76h-303.808c-44.224 0-80.192 36.864-80.192 82.24v429.376h-47.808zM512 704c0-35.346-28.654-64-64-64s-64 28.654-64 64c0 35.346 28.654 64 64 64s64-28.654 64-64zM408.836 693.475l28.621-14.31-78.307-156.613-28.621 14.31 78.307 156.613zM344.867 501.447l156.573-78.26-14.307-28.624-156.573 78.26 14.307 28.624zM384 512c0-35.346-28.654-64-64-64s-64 28.654-64 64c0 35.346 28.654 64 64 64s64-28.654 64-64zM576 384c0-35.346-28.654-64-64-64s-64 28.654-64 64c0 35.346 28.654 64 64 64s64-28.654 64-64z" />
<glyph unicode="&#xe932;" glyph-name="function" d="M789.504-32c-30.912 0-55.104 24.192-55.104 55.104v106.752h-86.528c-33.6 0-60.928 27.328-60.928 60.864v514.56c0 33.6 27.328 60.928 60.928 60.928h86.528v106.688c0 30.912 24.192 55.104 55.104 55.104 30.848 0 55.040-24.192 55.040-55.104v-106.688h86.592c33.536 0 60.864-27.328 60.864-60.928v-514.496c0-33.536-27.328-60.864-60.864-60.864h-86.592v-106.752c0-30.976-24.192-55.168-55.040-55.168zM647.872 702.144l3.072-511.424 161.6 3.136h118.592l-3.136 511.424-280.128-3.136zM234.56-32c-30.912 0-55.104 24.192-55.104 55.104v106.752h-86.528c-33.6 0-60.928 27.328-60.928 60.864v514.56c0 33.6 27.328 60.928 60.928 60.928h89.344v106.688c0 31.424 22.464 55.104 52.288 55.104 30.912 0 55.104-24.192 55.104-55.104v-106.688h86.528c19.264 0 36.928-7.744 48.384-21.312 10.56-12.416 14.848-28.352 12.096-44.864l0.448-509.312c0-33.536-27.328-60.864-60.928-60.864h-86.528v-106.752c0-30.912-24.256-55.104-55.104-55.104zM92.928 702.144l3.072-511.424 161.664 3.136h118.528l-3.072 508.16-280.192 0.128z" />
<glyph unicode="&#xe933;" glyph-name="grade" d="M915.2-24.576h-804.544c-38.208 0-69.312 31.104-69.312 69.376v457.344c0 38.272 31.104 69.312 69.312 69.312h149.632v-151.488c0-43.072 35.008-78.144 78.144-78.144h345.344c43.072 0 78.144 35.072 78.144 78.144v151.488h151.424c36.224 0 67.456-28.224 71.040-64.256l0.192-462.4c0-38.208-31.168-69.376-69.376-69.376zM110.656 507.456c-2.816 0-5.312-2.496-5.312-5.312v-457.344c0-2.944 2.432-5.376 5.312-5.376h804.544c2.944 0 5.376 2.432 5.376 5.376v459.2c0-0.192-3.328 3.456-7.232 3.456h-87.424v-87.488c0-78.4-63.744-142.144-142.144-142.144h-345.344c-78.4 0-142.144 63.744-142.144 142.144v87.488h-85.632zM685.632 352.576h-345.344c-38.272 0-69.312 31.104-69.312 69.312v166.144c0 35.456 25.408 63.808 60.544 67.328l35.2 3.52v-70.848c0-43.072 35.072-78.144 78.144-78.144h134.4c43.072 0 78.144 35.008 78.144 78.144v70.784l35.2-3.52c33.216-3.328 58.816-29.696 62.272-64.128l0.192-169.344c-0.128-38.144-31.232-69.248-69.44-69.248zM336.192 496.384l-1.28-74.496c0-2.88 2.432-5.312 5.312-5.312h345.344c2.88 0 5.312 2.432 5.312 5.312v78.4c-25.984-33.088-66.368-54.4-111.68-54.4h-134.4c-43.456 0-82.496 19.584-108.608 50.496zM581.056 516.8h-134.4c-38.208 0-69.312 31.104-69.312 69.312v52.48c-31.808 29.824-50.432 71.232-50.432 113.664 0 91.776 83.008 166.4 185.088 166.4 101.184 0 184.128-72.384 188.736-164.8 0.064-43.84-18.56-85.44-50.368-115.328v-52.416c0-38.208-31.104-69.312-69.312-69.312zM512 854.656c-66.752 0-121.088-45.952-121.088-102.4 0-27.968 14.144-55.424 37.824-73.472l12.544-9.6v-83.008c0-2.88 2.432-5.312 5.312-5.312h134.4c2.88 0 5.312 2.432 5.312 5.312v83.008l12.544 9.6c23.488 17.856 37.952 46.016 37.952 73.472-2.816 55.744-58.88 102.4-124.8 102.4z" />
<glyph unicode="&#xe934;" glyph-name="hourglass" horiz-adv-x="731" d="M178.025 529.119c-58.168 38.934-88.531 64.105-118.242 105.608-39.483 55.153-59.783 123.318-59.783 209.808 0 50.817 41.93 94.764 96.292 101.059l20.689 2.396c138.288 16.014 359.195 16.012 497.467 0l20.689-2.396c54.202-6.276 96.292-50.249 96.292-101.059 0-87.202-20.255-155.779-59.693-211.16-29.723-41.739-60.106-66.973-117.555-105.418-54.159-37.353-67.561-52.863-67.561-81.447s13.402-44.094 66.783-80.919c58.168-38.934 88.531-64.105 118.242-105.608 39.483-55.153 59.783-123.318 59.783-209.808 0-50.817-41.93-94.764-96.292-101.059-150.678-17.448-388.172-17.448-536.718-0.246-56.329 6.523-98.419 50.495-98.419 101.306 0 86.49 20.3 154.655 59.783 209.808 29.711 41.503 60.074 66.674 118.242 105.608l-2.104-1.467c2.475 1.795 2.475 1.795 4.908 3.555 52.446 37.946 63.98 51.972 63.98 80.52 0 28.584-13.402 44.094-66.783 80.919zM217.45 314.715c-70.684-47.311-149.988-103.071-149.988-264.539 0-19.087 16.642-36.464 37.171-38.842l2.127-0.246c143.002-16.559 374.892-16.561 517.909 0l2.127 0.246c20.711 2.398 37.171 19.767 37.171 38.842 0 161.467-79.304 217.227-149.988 264.539-46.548 32.104-94.82 65.898-94.82 131.796s48.272 99.692 94.82 131.796c70.684 47.311 149.988 103.071 149.988 266.228 0 19.087-16.642 36.464-37.171 38.842l-20.689 2.396c-132.717 15.368-348.020 15.374-480.785 0l-20.689-2.396c-20.711-2.398-37.171-19.767-37.171-38.842 0-161.467 79.304-217.227 149.988-264.539 46.548-32.104 94.82-65.898 94.82-131.796 0-67.588-48.272-99.692-94.82-133.486zM588.66 743.699c10.126-1.48 15.585-10.129 12.254-18.904 0 0-2.126-6.385-5.009-11.996-25.113-48.878-54.592-66.285-104.312-100.409-79.044-55.896-109.794-92.384-107.326-162.281-0.355-7.566-0.016-0.356-0.016-0.356 0.009-9.54-8.222-17.275-18.545-17.275-10.251 0-18.411 7.664-18.545 17.275 0 0 0.338-7.21-0.016 0.356 2.468 69.897-28.282 106.384-107.326 162.281-49.72 34.124-79.2 51.531-104.312 100.409-2.883 5.612-5.009 11.996-5.009 11.996-3.358 8.961 2.225 17.439 12.254 18.904l48.238 7.049c96.494 14.102 253.057 14.085 349.434 0l48.238-7.049z" />
<glyph unicode="&#xe935;" glyph-name="information1" horiz-adv-x="640" d="M266.624-32c-53.44 0-96.896 14.4-129.024 42.688-33.472 29.504-51.136 68.992-51.136 114.176 0 14.4 1.024 29.056 3.008 43.84 1.984 14.144 5.056 30.208 9.216 47.616l43.2 153.6c3.456 13.312 6.4 25.856 8.704 37.504 1.92 9.536 2.944 18.176 2.944 25.984 0 0.832 0 1.664 0 2.368-6.528 0.384-17.472 0.384-28.352-2.88-9.792-2.816-18.752-5.824-26.752-8.832l-17.152-3.072c-12.096 0-23.808 4.48-32.832 12.544-13.696 12.288-19.392 30.912-15.040 48.576l11.392 46.72c3.776 15.296 14.72 27.968 29.312 33.92 29.184 11.968 57.472 22.272 84.032 30.72 88.192 28.096 167.616 14.912 215.424-27.968 32.576-29.184 49.792-68.736 49.792-114.368 0-8-0.832-21.248-2.496-39.36-1.792-19.84-5.376-38.528-10.496-55.424l-42.24-150.272c-3.2-10.944-5.888-23.232-8.256-36.672-2.688-14.912-3.392-22.784-3.392-26.88 0-0.832 0-1.536 0-2.24 4.992-0.384 9.408-3.264 32.64 3.328 12.288 3.456 18.112 5.44 20.864 6.72 15.744 7.552 37.632 5.376 52.096-6.656 14.4-11.776 20.864-31.232 16.512-49.6l-11.392-46.912c-3.712-15.424-14.784-28.224-29.696-34.176-34.432-13.568-62.656-24.256-83.84-31.616-25.216-8.896-54.528-13.376-87.040-13.376zM145.088 500.096c26.752 0 45.056-5.12 56-15.616 11.008-10.496 16.448-27.264 16.448-51.072 0-11.648-1.344-24.576-4.16-38.592-2.56-12.48-5.76-26.304-9.728-41.6l-43.072-153.024c-3.328-13.952-6.080-27.904-7.744-40.192-1.6-11.84-2.432-23.616-2.432-35.136 0-27.072 9.664-48.704 29.44-66.176 20.16-17.664 49.344-26.688 86.784-26.688 25.28 0 47.488 3.328 65.984 9.792 19.2 6.656 44.096 16.064 74.24 27.904l3.264 13.312c-1.216-0.384-2.432-0.768-3.776-1.088-45.632-12.736-77.568-5.824-94.784 7.872-12.992 10.752-19.072 27.84-19.072 52.672 0 5.824 0.576 17.088 4.416 38.144 2.688 15.68 5.952 30.272 9.664 43.072l42.368 150.592c4.032 13.44 6.72 27.84 8.192 43.392 1.408 15.424 2.24 26.688 2.24 33.472 0 27.712-9.344 49.536-28.544 66.688-30.4 27.328-87.296 35.776-153.28 14.656-22.912-7.296-47.232-16.064-72.256-26.112l-3.392-13.568c1.664 0.512 3.392 1.024 5.12 1.536 12.928 3.776 25.792 5.76 38.080 5.76zM459.264 605.44c-43.392 0-81.28 15.488-112.448 45.952-31.808 31.168-47.936 69.44-47.936 113.856 0 43.584 16.512 82.944 47.744 113.856 62.4 61.568 163.008 61.568 225.024-0.064 31.36-31.296 47.296-69.504 47.296-113.728 0-43.776-16.448-83.072-47.424-113.664-31.040-30.656-68.8-46.208-112.256-46.208zM459.264 861.44c-26.496 0-48.64-9.152-67.648-27.904-19.328-19.072-28.736-41.408-28.736-68.288 0-26.944 9.344-49.216 28.672-68.032 38.144-37.312 97.344-37.312 134.912-0.064 19.136 18.816 28.416 41.152 28.416 68.096s-9.344 49.344-28.416 68.416c-18.816 18.688-40.832 27.776-67.2 27.776z" />
<glyph unicode="&#xe936;" glyph-name="link2" horiz-adv-x="1434" d="M553.756 201.053l-127.009-121.917c-37.743-36.23-99.117-36.215-136.83-0.014l-140.804 135.159c-37.713 36.215-37.713 95.143 0 131.359l319.667 306.823c37.698 36.215 99.072 36.186 136.8 0l140.804-135.159c27.559-26.469 35.9-65.977 21.244-100.64-12.556-29.689 2.342-63.526 33.271-75.564 30.868-12.052 66.164 2.248 78.719 31.937 32.984 77.971 14.218 166.806-47.776 226.314l-140.804 135.173c-84.869 81.438-222.923 81.438-307.731-0.015l-319.667-306.838c-84.854-81.438-84.854-213.986 0-295.423l140.804-135.159c42.427-40.726 98.135-61.089 153.873-61.089s111.461 20.363 153.888 61.089l127.009 121.932c23.616 22.669 23.616 59.392 0 82.032-23.601 22.655-61.873 22.655-85.458 0zM1369.96 763.763l-140.804 135.159c-84.839 81.438-222.907 81.438-307.746 0l-127.009-121.932c-23.616-22.669-23.616-59.392 0-82.032 23.616-22.669 61.888-22.669 85.458 0l127.009 121.917c37.743 36.23 99.117 36.215 136.83 0.015l140.804-135.159c37.713-36.215 37.713-95.143 0-131.359l-319.652-306.823c-37.713-36.201-99.087-36.201-136.83 0l-140.804 135.159c-27.559 26.469-35.9 65.977-21.244 100.64 12.556 29.689-2.342 63.526-33.271 75.564-30.929 12.067-66.164-2.234-78.719-31.937-32.984-77.971-14.218-166.806 47.776-226.314l140.804-135.173c42.442-40.712 98.15-61.075 153.888-61.075s111.446 20.363 153.873 61.089l319.637 306.823c84.854 81.467 84.854 214 0 295.438z" />
<glyph unicode="&#xe937;" glyph-name="mission" horiz-adv-x="768" d="M616.768-55.168h-465.472c-65.792 0-119.296 55.424-119.296 123.648v672c0 68.16 53.504 123.648 119.296 123.648h1.024c3.2 8.512 8.192 16.384 14.72 22.912 11.456 11.52 26.56 17.792 42.432 17.792h349.12c25.6 0 48.256-17.216 57.088-40.704h1.152c65.728 0 119.232-55.488 119.232-123.648v-672c-0.064-68.224-53.568-123.648-119.296-123.648zM151.296 800.064c-29.952 0-55.296-27.264-55.296-59.584v-672c0-32.32 25.344-59.648 55.296-59.648h465.472c29.952 0 55.232 27.328 55.232 59.648v672c0 32.32-25.344 59.648-55.232 59.648h-55.36v-61.12h-102.272c-6.080-35.392-38.208-61.12-75.136-61.12-36.992 0-69.12 25.728-78.080 62.656l-99.392-1.536v61.056h-55.232zM356.224 779.712c5.504-6.912 9.664-15.040 11.904-24 1.536-6.4 6.592-13.824 15.872-13.824s14.4 7.424 15.936 13.824c2.24 8.96 6.336 17.088 11.904 24h-55.616zM344.064 213.184v0c-12.864 0-25.152 4.672-34.624 13.248l-82.112 71.616c-9.152 6.272-17.088 19.52-19.264 34.432-2.176 14.976 1.728 30.016 10.624 41.344 18.56 23.616 58.752 25.28 79.232 3.456l42.624-37.184 129.344 137.088c8 8.704 19.136 14.592 31.104 16.256l6.848 0.576c21.632-0.96 39.552-13.056 47.68-30.912 9.344-20.352 5.056-45.376-10.24-60.928l-163.392-172.864c-9.792-10.24-23.488-16.128-37.824-16.128z" />
<glyph unicode="&#xe938;" glyph-name="pin" d="M86.272-31.744c-14.4 0-28.032 5.632-38.272 15.808-10.304 10.24-16 23.872-16 38.4s5.632 28.096 15.936 38.464l249.344 249.344-74.176 73.984c-20.864 20.864-32.32 48.64-32.32 78.016 0 29.44 11.52 57.216 32.32 78.016l9.92 9.92c38.208 38.208 102.976 41.984 145.024 9.728l180.928 180.864c-33.024 43.2-29.76 105.472 9.728 144.896l9.856 9.984c41.6 41.664 114.368 41.728 156.096 0.064l225.088-225.024c43.008-42.944 43.008-112.96 0-156.032l-10.112-10.048c-37.696-38.016-102.4-42.048-144.768-9.664l-180.992-180.864c14.656-19.136 22.592-42.432 22.592-66.944 0-29.44-11.52-57.216-32.32-78.016l-9.984-9.92c-41.6-41.664-114.432-41.6-156.096 0.064l-74.112 74.112-249.344-249.344c-10.304-10.176-23.936-15.808-38.336-15.808zM387.776 310.144l105.6-105.536c17.536-17.6 48.064-17.536 65.536-0.064l9.92 9.92c8.768 8.768 13.568 20.352 13.568 32.768s-4.8 23.936-13.504 32.704l-34.816 34.944 270.144 269.952 34.752-34.816c17.344-17.344 48-17.408 65.472 0l10.112 10.048c17.92 17.984 17.92 47.36-0.128 65.408l-225.024 224.96c-17.472 17.472-48.064 17.472-65.536 0l-9.856-9.92c-18.112-18.112-18.112-47.488-0.064-65.6l34.816-34.816-270.080-270.080-34.88 35.008c-17.344 17.344-48 17.536-65.536 0l-9.92-9.984c-8.704-8.768-13.568-20.352-13.568-32.768 0-12.352 4.864-24 13.632-32.832l119.36-119.296z" />
<glyph unicode="&#xe939;" glyph-name="project-list" d="M663.827-56.531c21.426 0 38.788 17.361 38.788 38.788s-17.361 38.788-38.788 38.788h-259.325c-21.426 0-38.788-17.361-38.788-38.788s17.361-38.788 38.788-38.788h259.325zM974.13 176.197h-569.628c-21.426 0-38.788-17.361-38.788-38.788s17.361-38.788 38.788-38.788h569.628c21.426 0 38.788 17.361 38.788 38.788s-17.361 38.788-38.788 38.788zM404.502 331.348h414.476c21.426 0 38.788 17.361 38.788 38.788s-17.361 38.788-38.788 38.788h-414.476c-21.426 0-38.788-17.361-38.788-38.788s17.361-38.788 38.788-38.788zM974.13 564.075h-569.628c-21.426 0-38.788-17.361-38.788-38.788s17.361-38.788 38.788-38.788h569.628c21.426 0 38.788 17.361 38.788 38.788s-17.361 38.788-38.788 38.788zM404.502 719.227h259.325c21.426 0 38.788 17.361 38.788 38.788s-17.361 38.788-38.788 38.788h-259.325c-21.426 0-38.788-17.361-38.788-38.788s17.361-38.788 38.788-38.788zM974.13 951.954h-569.628c-21.426 0-38.788-17.361-38.788-38.788s17.361-38.788 38.788-38.788h569.628c21.426 0 38.788 17.361 38.788 38.788s-17.361 38.788-38.788 38.788zM116.364 719.515c64.171 0 116.364 52.193 116.364 116.364s-52.193 116.364-116.364 116.364c-64.171 0-116.364-52.193-116.364-116.364s52.193-116.364 116.364-116.364zM116.364 874.667c21.38 0 38.788-17.392 38.788-38.788s-17.408-38.788-38.788-38.788c-21.38 0-38.788 17.392-38.788 38.788s17.408 38.788 38.788 38.788zM116.364 331.636c64.171 0 116.364 52.193 116.364 116.364s-52.193 116.364-116.364 116.364c-64.171 0-116.364-52.193-116.364-116.364s52.193-116.364 116.364-116.364zM116.364 486.788c21.38 0 38.788-17.392 38.788-38.788s-17.408-38.788-38.788-38.788c-21.38 0-38.788 17.392-38.788 38.788s17.408 38.788 38.788 38.788zM116.364-56.242c64.171 0 116.364 52.193 116.364 116.364s-52.193 116.364-116.364 116.364c-64.171 0-116.364-52.193-116.364-116.364s52.193-116.364 116.364-116.364zM116.364 98.909c21.38 0 38.788-17.392 38.788-38.788s-17.408-38.788-38.788-38.788c-21.38 0-38.788 17.392-38.788 38.788s17.408 38.788 38.788 38.788z" />
<glyph unicode="&#xe93a;" glyph-name="storage" d="M605.312 195.136h-224c-17.344 0-31.488-14.592-31.488-32.512s14.144-32.576 31.488-32.576h224c17.344 0 31.488 14.656 31.488 32.576s-14.144 32.512-31.488 32.512zM605.312 52.288h-224c-17.344 0-31.488-14.592-31.488-32.512s14.144-32.576 31.488-32.576h224c17.344 0 31.488 14.656 31.488 32.576s-14.144 32.512-31.488 32.512zM778.176 670.208c-30.72 138.816-148.992 238.592-284.864 238.592-161.408 0-292.8-138.496-292.8-308.672 0-3.2 0.064-6.464 0.192-9.728-86.016-15.744-149.504-94.208-149.504-187.456 0-104.96 81.088-190.336 180.8-190.336h74.688c17.344 0 31.488 14.592 31.488 32.512s-14.144 32.576-31.488 32.576h-74.688c-64.96 0-117.824 56.192-117.824 125.248s52.288 125.248 114.176 125.504c1.28-0.256 4.928-0.704 7.488-0.576 9.536 0.896 17.472 4.672 22.976 11.2 5.952 7.104 8.64 16.512 7.36 25.792-1.856 13.632-2.688 24.832-2.688 35.264 0 134.272 103.168 243.584 229.888 243.584 113.536 0 211.2-89.792 227.2-208.896 2.176-16.704 18.496-26.048 34.112-27.776 85.568 0 155.2-73.856 155.2-164.672s-69.632-164.672-155.2-164.672h-74.688c-17.344 0-31.488-14.656-31.488-32.576s14.144-32.512 31.488-32.512h74.688c120.256 0 218.112 103.104 218.112 229.76 0 118.208-83.008 214.464-194.624 227.84zM605.312 338.112h-224c-17.344 0-31.488-14.656-31.488-32.576s14.144-32.512 31.488-32.512h224c17.344 0 31.488 14.592 31.488 32.512s-14.144 32.576-31.488 32.576z" />
<glyph unicode="&#xe93b;" glyph-name="user" horiz-adv-x="768" d="M633.088-32h-497.536c-56.768 0-102.912 48.832-102.912 108.736l-0.64 31.936c0 169.728 128.192 307.328 285.824 307.328h131.776c157.632 0 285.824-137.6 285.824-306.752l0.64-31.872c-0.064-60.544-46.272-109.376-102.976-109.376zM317.824 352c-122.304 0-221.824-108.864-221.824-242.752l0.576-31.936c0-25.28 17.472-45.312 38.912-45.312h497.536c21.504 0 38.912 20.032 38.912 44.736l-0.64 31.872c0 134.528-99.52 243.392-221.824 243.392h-131.648zM384.96 480c-126.656 0-224.96 128.64-224.96 239.232 0 115.136 100.48 208.768 224 208.768s224-93.632 224-208.768c0-112.896-95.36-239.232-223.040-239.232zM384 864c-88.192 0-160-64.96-160-144.768 0-79.36 71.808-175.232 160.96-175.232 88.128 0 159.040 95.872 159.040 175.232 0 79.808-71.744 144.768-160 144.768z" />
<glyph unicode="&#xe93c;" glyph-name="mission-awesome1" horiz-adv-x="1223" d="M625.778 957.44c-186.88 0-338.773-151.893-338.773-338.773s151.893-338.773 338.773-338.773c186.88 0 338.773 151.893 338.773 338.773s-151.893 338.773-338.773 338.773zM625.778 314.027c-168.107 0-304.64 136.533-304.64 304.64s136.533 304.64 304.64 304.64c168.107 0 304.64-136.533 304.64-304.64s-136.533-304.64-304.64-304.64zM456.818 704c0-8.954-7.259-16.213-16.213-16.213s-16.213 7.259-16.213 16.213c0 8.954 7.259 16.213 16.213 16.213s16.213-7.259 16.213-16.213zM827.164 704c0-8.954-7.259-16.213-16.213-16.213s-16.213 7.259-16.213 16.213c0 8.954 7.259 16.213 16.213 16.213s16.213-7.259 16.213-16.213zM425.244 618.667c0-111.787 90.453-202.24 202.24-202.24s202.24 90.453 202.24 202.24v17.067h-404.48v-17.067zM794.738 601.6c-8.533-84.48-80.213-151.040-167.253-151.040s-158.72 66.56-167.253 151.040h334.507zM149.049-34.987c-4.172-2.465-9.956-3.698-17.351-3.698-6.258 0-11.236 1.754-14.933 5.262s-5.547 9.244-5.547 17.209c-6.637-7.964-14.364-13.701-23.182-17.209s-18.347-5.262-28.587-5.262c-6.637 0-12.942 0.759-18.916 2.276s-11.141 3.887-15.502 7.111c-4.362 3.224-7.822 7.443-10.382 12.658s-3.84 11.52-3.84 18.916c0 8.344 1.422 15.17 4.267 20.48s6.59 9.624 11.236 12.942c4.646 3.319 9.956 5.831 15.929 7.538s12.089 3.129 18.347 4.267c6.637 1.327 12.942 2.323 18.916 2.987s11.236 1.612 15.787 2.844c4.551 1.233 8.154 3.034 10.809 5.404s3.982 5.831 3.982 10.382c0 5.31-0.996 9.576-2.987 12.8s-4.551 5.689-7.68 7.396c-3.129 1.707-6.637 2.844-10.524 3.413s-7.727 0.853-11.52 0.853c-10.24 0-18.773-1.944-25.6-5.831s-10.524-11.236-11.093-22.044h-24.178c0.379 9.102 2.276 16.782 5.689 23.040s7.964 11.33 13.653 15.218c5.689 3.887 12.184 6.684 19.484 8.391s15.123 2.56 23.467 2.56c6.637 0 13.227-0.474 19.769-1.422s12.468-2.892 17.778-5.831c5.31-2.939 9.576-7.064 12.8-12.373s4.836-12.231 4.836-20.764v-75.662c0-5.689 0.332-9.861 0.996-12.516s2.892-3.982 6.684-3.982c2.086 0 4.551 0.474 7.396 1.422v-18.773zM109.796 40.391c-3.034-2.276-7.016-3.935-11.947-4.978s-10.098-1.896-15.502-2.56c-5.404-0.664-10.856-1.422-16.356-2.276s-10.43-2.228-14.791-4.124c-4.362-1.896-7.917-4.599-10.667-8.107s-4.124-8.296-4.124-14.364c0-3.982 0.806-7.348 2.418-10.098s3.698-4.978 6.258-6.684c2.56-1.707 5.547-2.939 8.96-3.698s7.016-1.138 10.809-1.138c7.964 0 14.791 1.090 20.48 3.271s10.335 4.93 13.938 8.249c3.603 3.319 6.258 6.921 7.964 10.809s2.56 7.538 2.56 10.951v24.747zM317.156-35.556l46.933 147.058h-25.031l-32.996-120.32h-0.569l-30.72 120.32h-26.453l-29.582-120.32h-0.569l-33.28 120.32h-26.738l47.218-147.058h26.169l29.582 116.907h0.569l29.867-116.907h25.6zM489.244 52.053h-84.48c0.379 5.689 1.612 11.046 3.698 16.071s4.93 9.434 8.533 13.227c3.603 3.793 7.917 6.779 12.942 8.96s10.667 3.271 16.924 3.271c6.068 0 11.615-1.090 16.64-3.271s9.387-5.12 13.084-8.818c3.698-3.698 6.637-8.107 8.818-13.227s3.461-10.524 3.84-16.213zM512.569 11.093h-23.893c-2.086-9.671-6.4-16.877-12.942-21.618s-14.933-7.111-25.173-7.111c-7.964 0-14.886 1.327-20.764 3.982s-10.714 6.21-14.507 10.667c-3.793 4.456-6.542 9.576-8.249 15.36s-2.465 11.899-2.276 18.347h110.080c0.379 8.913-0.427 18.299-2.418 28.16s-5.594 18.963-10.809 27.307c-5.215 8.344-12.136 15.218-20.764 20.622s-19.484 8.107-32.569 8.107c-10.050 0-19.295-1.896-27.733-5.689s-15.739-9.102-21.902-15.929c-6.163-6.827-10.951-14.886-14.364-24.178s-5.12-19.532-5.12-30.72c0.379-11.188 2.039-21.523 4.978-31.004s7.348-17.636 13.227-24.462c5.879-6.827 13.132-12.136 21.76-15.929s18.821-5.689 30.578-5.689c16.687 0 30.53 4.172 41.529 12.516s18.11 20.764 21.333 37.262zM554.667 10.809h-24.178c0.379-9.102 2.276-16.83 5.689-23.182s7.964-11.473 13.653-15.36c5.689-3.887 12.231-6.684 19.627-8.391s15.17-2.56 23.324-2.56c7.396 0 14.838 0.711 22.329 2.133s14.222 3.935 20.196 7.538c5.973 3.603 10.809 8.344 14.507 14.222s5.547 13.274 5.547 22.187c0 7.016-1.375 12.895-4.124 17.636s-6.353 8.676-10.809 11.804c-4.456 3.129-9.576 5.641-15.36 7.538s-11.71 3.508-17.778 4.836c-5.689 1.327-11.378 2.607-17.067 3.84s-10.809 2.75-15.36 4.551c-4.551 1.801-8.296 4.077-11.236 6.827s-4.409 6.21-4.409 10.382c0 3.793 0.948 6.874 2.844 9.244s4.361 4.267 7.396 5.689c3.034 1.422 6.4 2.418 10.098 2.987s7.348 0.853 10.951 0.853c3.982 0 7.917-0.427 11.804-1.28s7.443-2.228 10.667-4.124c3.224-1.896 5.879-4.409 7.964-7.538s3.319-7.064 3.698-11.804h24.178c-0.569 8.913-2.465 16.356-5.689 22.329s-7.538 10.714-12.942 14.222c-5.404 3.508-11.615 5.973-18.631 7.396s-14.696 2.133-23.040 2.133c-6.447 0-12.942-0.806-19.484-2.418s-12.421-4.077-17.636-7.396c-5.215-3.319-9.481-7.633-12.8-12.942s-4.978-11.662-4.978-19.058c0-9.482 2.37-16.877 7.111-22.187s10.667-9.434 17.778-12.373c7.111-2.939 14.838-5.215 23.182-6.827s16.071-3.413 23.182-5.404c7.111-1.991 13.037-4.599 17.778-7.822s7.111-7.964 7.111-14.222c0-4.551-1.138-8.296-3.413-11.236s-5.167-5.167-8.676-6.684c-3.508-1.517-7.348-2.56-11.52-3.129s-8.154-0.853-11.947-0.853c-4.93 0-9.718 0.474-14.364 1.422s-8.818 2.513-12.516 4.693c-3.698 2.181-6.684 5.12-8.96 8.818s-3.508 8.201-3.698 13.511zM699.733 37.831c0 8.913 1.185 16.83 3.556 23.751s5.641 12.753 9.813 17.493c4.172 4.741 9.055 8.344 14.649 10.809s11.52 3.698 17.778 3.698c6.258 0 12.184-1.233 17.778-3.698s10.477-6.068 14.649-10.809c4.172-4.741 7.443-10.572 9.813-17.493s3.556-14.838 3.556-23.751c0-8.913-1.185-16.83-3.556-23.751s-5.641-12.705-9.813-17.351c-4.172-4.646-9.055-8.201-14.649-10.667s-11.52-3.698-17.778-3.698c-6.258 0-12.184 1.233-17.778 3.698s-10.477 6.021-14.649 10.667c-4.172 4.646-7.443 10.43-9.813 17.351s-3.556 14.838-3.556 23.751zM674.133 37.831c0-10.809 1.517-20.859 4.551-30.151s7.585-17.398 13.653-24.32c6.068-6.922 13.558-12.326 22.471-16.213s19.153-5.831 30.72-5.831c11.757 0 22.044 1.944 30.862 5.831s16.261 9.292 22.329 16.213c6.068 6.922 10.619 15.028 13.653 24.32s4.551 19.342 4.551 30.151c0 10.809-1.517 20.907-4.551 30.293s-7.585 17.541-13.653 24.462c-6.068 6.922-13.511 12.373-22.329 16.356s-19.105 5.973-30.862 5.973c-11.567 0-21.807-1.991-30.72-5.973s-16.403-9.434-22.471-16.356c-6.068-6.922-10.619-15.076-13.653-24.462s-4.551-19.484-4.551-30.293zM845.369 111.502v-147.058h24.178v91.591c0 2.844 0.711 6.4 2.133 10.667s3.698 8.391 6.827 12.373c3.129 3.982 7.206 7.396 12.231 10.24s11.046 4.267 18.062 4.267c5.499 0 10.003-0.806 13.511-2.418s6.305-3.887 8.391-6.827c2.086-2.939 3.556-6.4 4.409-10.382s1.28-8.344 1.28-13.084v-96.427h24.178v91.591c0 11.378 3.413 20.48 10.24 27.307s16.213 10.24 28.16 10.24c5.879 0 10.667-0.853 14.364-2.56s6.59-4.030 8.676-6.969c2.086-2.939 3.508-6.4 4.267-10.382s1.138-8.249 1.138-12.8v-96.427h24.178v107.804c0 7.585-1.185 14.080-3.556 19.484s-5.689 9.813-9.956 13.227c-4.267 3.413-9.387 5.926-15.36 7.538s-12.658 2.418-20.053 2.418c-9.671 0-18.536-2.181-26.596-6.542s-14.554-10.524-19.484-18.489c-3.034 9.102-8.249 15.55-15.644 19.342s-15.644 5.689-24.747 5.689c-20.67 0-36.504-8.344-47.502-25.031h-0.569v21.618h-22.756zM1190.116 52.053h-84.48c0.379 5.689 1.612 11.046 3.698 16.071s4.93 9.434 8.533 13.227c3.603 3.793 7.917 6.779 12.942 8.96s10.667 3.271 16.924 3.271c6.068 0 11.615-1.090 16.64-3.271s9.387-5.12 13.084-8.818c3.698-3.698 6.637-8.107 8.818-13.227s3.461-10.524 3.84-16.213zM1213.44 11.093h-23.893c-2.086-9.671-6.4-16.877-12.942-21.618s-14.933-7.111-25.173-7.111c-7.964 0-14.886 1.327-20.764 3.982s-10.714 6.21-14.507 10.667c-3.793 4.456-6.542 9.576-8.249 15.36s-2.465 11.899-2.276 18.347h110.080c0.379 8.913-0.427 18.299-2.418 28.16s-5.594 18.963-10.809 27.307c-5.215 8.344-12.136 15.218-20.764 20.622s-19.484 8.107-32.569 8.107c-10.050 0-19.295-1.896-27.733-5.689s-15.739-9.102-21.902-15.929c-6.163-6.827-10.951-14.886-14.364-24.178s-5.12-19.532-5.12-30.72c0.379-11.188 2.039-21.523 4.978-31.004s7.348-17.636 13.227-24.462c5.879-6.827 13.132-12.136 21.76-15.929s18.821-5.689 30.578-5.689c16.687 0 30.53 4.172 41.529 12.516s18.11 20.764 21.333 37.262z" />
<glyph unicode="&#xe93d;" horiz-adv-x="1223" d="M625.778 957.44c-186.88 0-338.773-151.893-338.773-338.773s151.893-338.773 338.773-338.773 338.773 151.893 338.773 338.773-151.893 338.773-338.773 338.773zM810.951 720.213c8.96 0 16.213-7.253 16.213-16.213s-7.253-16.213-16.213-16.213c-8.96 0-16.213 7.253-16.213 16.213s7.253 16.213 16.213 16.213zM440.604 720.213c8.96 0 16.213-7.253 16.213-16.213s-7.253-16.213-16.213-16.213-16.213 7.253-16.213 16.213 7.253 16.213 16.213 16.213zM829.724 618.667c0-111.787-90.453-202.24-202.24-202.24s-202.24 90.453-202.24 202.24v17.067h404.48v-17.067z" />
<glyph unicode="&#xe93e;" horiz-adv-x="1223" d="M149.049-34.987c-4.181-2.475-9.956-3.698-17.351-3.698-6.258 0-11.236 1.764-14.933 5.262s-5.547 9.244-5.547 17.209c-6.628-7.964-14.364-13.71-23.182-17.209s-18.347-5.262-28.587-5.262c-6.628 0-12.942 0.768-18.916 2.276s-11.15 3.897-15.502 7.111c-4.352 3.214-7.822 7.452-10.382 12.658s-3.84 11.52-3.84 18.916c0 8.334 1.422 15.161 4.267 20.48s6.599 9.614 11.236 12.942c4.636 3.328 9.956 5.831 15.929 7.538s12.089 3.129 18.347 4.267c6.628 1.337 12.942 2.332 18.916 2.987s11.236 1.621 15.787 2.844 8.164 3.044 10.809 5.404 3.982 5.831 3.982 10.382c0 5.319-0.996 9.586-2.987 12.8s-4.551 5.689-7.68 7.396c-3.129 1.707-6.628 2.844-10.524 3.413s-7.737 0.853-11.52 0.853c-10.24 0-18.773-1.934-25.6-5.831s-10.524-11.236-11.093-22.044h-24.178c0.37 9.102 2.276 16.782 5.689 23.040s7.964 11.321 13.653 15.218 12.174 6.684 19.484 8.391c7.31 1.707 15.132 2.56 23.467 2.56 6.628 0 13.227-0.484 19.769-1.422s12.459-2.901 17.778-5.831c5.319-2.93 9.586-7.054 12.8-12.373s4.836-12.231 4.836-20.764v-75.662c0-5.689 0.341-9.87 0.996-12.516s2.901-3.982 6.684-3.982c2.076 0 4.551 0.484 7.396 1.422v-18.773zM109.796 40.391c-3.044-2.276-7.026-3.925-11.947-4.978s-10.098-1.906-15.502-2.56c-5.404-0.654-10.866-1.422-16.356-2.276s-10.439-2.219-14.791-4.124-7.908-4.608-10.667-8.107c-2.759-3.499-4.124-8.306-4.124-14.364 0-3.982 0.796-7.339 2.418-10.098s3.698-4.978 6.258-6.684c2.56-1.707 5.547-2.93 8.96-3.698s7.026-1.138 10.809-1.138c7.964 0 14.791 1.081 20.48 3.271s10.325 4.921 13.938 8.249 6.258 6.912 7.964 10.809c1.707 3.897 2.56 7.538 2.56 10.951v24.747zM317.156-35.556l46.933 147.058h-25.031l-32.996-120.32h-0.569l-30.72 120.32h-26.453l-29.582-120.32h-0.569l-33.28 120.32h-26.738l47.218-147.058h26.169l29.582 116.907h0.569l29.867-116.907h25.6zM489.244 52.053h-84.48c0.37 5.689 1.621 11.036 3.698 16.071s4.921 9.444 8.533 13.227c3.612 3.783 7.908 6.77 12.942 8.96s10.667 3.271 16.924 3.271c6.059 0 11.605-1.081 16.64-3.271s9.387-5.12 13.084-8.818c3.698-3.698 6.628-8.107 8.818-13.227s3.47-10.524 3.84-16.213zM512.569 11.093h-23.893c-2.076-9.671-6.4-16.868-12.942-21.618s-14.933-7.111-25.173-7.111c-7.964 0-14.876 1.337-20.764 3.982s-10.724 6.201-14.507 10.667c-3.783 4.466-6.542 9.586-8.249 15.36s-2.475 11.89-2.276 18.347h110.080c0.37 8.903-0.427 18.29-2.418 28.16s-5.604 18.972-10.809 27.307-12.146 15.218-20.764 20.622c-8.619 5.404-19.484 8.107-32.569 8.107-10.041 0-19.285-1.906-27.733-5.689s-15.73-9.102-21.902-15.929c-6.172-6.827-10.951-14.876-14.364-24.178s-5.12-19.541-5.12-30.72c0.37-11.179 2.048-21.532 4.978-31.004s7.339-17.636 13.227-24.462c5.888-6.827 13.141-12.146 21.76-15.929s18.83-5.689 30.578-5.689c16.697 0 30.521 4.181 41.529 12.516s18.119 20.764 21.333 37.262zM554.667 10.809h-24.178c0.37-9.102 2.276-16.839 5.689-23.182s7.964-11.463 13.653-15.36c5.689-3.897 12.231-6.684 19.627-8.391s15.161-2.56 23.324-2.56c7.396 0 14.848 0.711 22.329 2.133s14.222 3.925 20.196 7.538c5.973 3.612 10.809 8.334 14.507 14.222s5.547 13.284 5.547 22.187c0 7.026-1.365 12.885-4.124 17.636s-6.343 8.676-10.809 11.804-9.586 5.632-15.36 7.538c-5.774 1.906-11.719 3.499-17.778 4.836-5.689 1.337-11.378 2.617-17.067 3.84s-10.809 2.759-15.36 4.551c-4.551 1.792-8.306 4.068-11.236 6.827s-4.409 6.201-4.409 10.382c0 3.783 0.939 6.884 2.844 9.244s4.352 4.267 7.396 5.689c3.044 1.422 6.4 2.418 10.098 2.987s7.339 0.853 10.951 0.853c3.982 0 7.908-0.427 11.804-1.28s7.452-2.219 10.667-4.124c3.214-1.906 5.888-4.409 7.964-7.538s3.328-7.054 3.698-11.804h24.178c-0.569 8.903-2.475 16.356-5.689 22.329s-7.538 10.724-12.942 14.222c-5.404 3.499-11.605 5.973-18.631 7.396s-14.706 2.133-23.040 2.133c-6.457 0-12.942-0.796-19.484-2.418s-12.43-4.068-17.636-7.396-9.472-7.623-12.8-12.942c-3.328-5.319-4.978-11.662-4.978-19.058 0-9.472 2.361-16.868 7.111-22.187s10.667-9.444 17.778-12.373 14.848-5.205 23.182-6.827c8.334-1.621 16.071-3.413 23.182-5.404s13.028-4.608 17.778-7.822c4.75-3.214 7.111-7.964 7.111-14.222 0-4.551-1.138-8.306-3.413-11.236s-5.177-5.177-8.676-6.684c-3.499-1.508-7.339-2.56-11.52-3.129s-8.164-0.853-11.947-0.853c-4.921 0-9.728 0.484-14.364 1.422s-8.818 2.503-12.516 4.693c-3.698 2.19-6.684 5.12-8.96 8.818s-3.499 8.192-3.698 13.511zM699.733 37.831c0 8.903 1.195 16.839 3.556 23.751s5.632 12.743 9.813 17.493c4.181 4.75 9.045 8.334 14.649 10.809s11.52 3.698 17.778 3.698c6.258 0 12.174-1.223 17.778-3.698s10.468-6.059 14.649-10.809c4.181-4.75 7.452-10.581 9.813-17.493s3.556-14.848 3.556-23.751c0-8.903-1.195-16.839-3.556-23.751s-5.632-12.715-9.813-17.351-9.045-8.192-14.649-10.667c-5.604-2.475-11.52-3.698-17.778-3.698s-12.174 1.223-17.778 3.698c-5.604 2.475-10.468 6.030-14.649 10.667s-7.452 10.439-9.813 17.351c-2.361 6.912-3.556 14.848-3.556 23.751zM674.133 37.831c0-10.809 1.508-20.85 4.551-30.151s7.595-17.408 13.653-24.32c6.059-6.912 13.568-12.316 22.471-16.213s19.143-5.831 30.72-5.831c11.748 0 22.044 1.934 30.862 5.831s16.27 9.301 22.329 16.213c6.059 6.912 10.61 15.019 13.653 24.32s4.551 19.342 4.551 30.151c0 10.809-1.508 20.907-4.551 30.293s-7.595 17.55-13.653 24.462c-6.059 6.912-13.511 12.373-22.329 16.356s-19.115 5.973-30.862 5.973c-11.577 0-21.817-1.991-30.72-5.973s-16.412-9.444-22.471-16.356c-6.059-6.912-10.61-15.076-13.653-24.462s-4.551-19.484-4.551-30.293zM845.369 111.502v-147.058h24.178v91.591c0 2.844 0.711 6.4 2.133 10.667s3.698 8.391 6.827 12.373c3.129 3.982 7.196 7.396 12.231 10.24s11.036 4.267 18.062 4.267c5.49 0 10.012-0.796 13.511-2.418s6.315-3.897 8.391-6.827 3.556-6.4 4.409-10.382c0.853-3.982 1.28-8.334 1.28-13.084v-96.427h24.178v91.591c0 11.378 3.413 20.48 10.24 27.307s16.213 10.24 28.16 10.24c5.888 0 10.667-0.853 14.364-2.56s6.599-4.039 8.676-6.969 3.499-6.4 4.267-10.382c0.768-3.982 1.138-8.249 1.138-12.8v-96.427h24.178v107.804c0 7.595-1.195 14.080-3.556 19.484s-5.689 9.813-9.956 13.227-9.387 5.916-15.36 7.538c-5.973 1.621-12.658 2.418-20.053 2.418-9.671 0-18.546-2.19-26.596-6.542s-14.564-10.524-19.484-18.489c-3.044 9.102-8.249 15.559-15.644 19.342s-15.644 5.689-24.747 5.689c-20.679 0-36.494-8.334-47.502-25.031h-0.569v21.618h-22.756zM1190.116 52.053h-84.48c0.37 5.689 1.621 11.036 3.698 16.071s4.921 9.444 8.533 13.227c3.612 3.783 7.908 6.77 12.942 8.96s10.667 3.271 16.924 3.271c6.059 0 11.605-1.081 16.64-3.271s9.387-5.12 13.084-8.818 6.628-8.107 8.818-13.227c2.19-5.12 3.47-10.524 3.84-16.213zM1213.44 11.093h-23.893c-2.076-9.671-6.4-16.868-12.942-21.618s-14.933-7.111-25.173-7.111c-7.964 0-14.876 1.337-20.764 3.982s-10.724 6.201-14.507 10.667c-3.783 4.466-6.542 9.586-8.249 15.36s-2.475 11.89-2.276 18.347h110.080c0.37 8.903-0.427 18.29-2.418 28.16s-5.604 18.972-10.809 27.307-12.146 15.218-20.764 20.622c-8.619 5.404-19.484 8.107-32.569 8.107-10.041 0-19.285-1.906-27.733-5.689s-15.73-9.102-21.902-15.929c-6.172-6.827-10.951-14.876-14.364-24.178s-5.12-19.541-5.12-30.72c0.37-11.179 2.048-21.532 4.978-31.004s7.339-17.636 13.227-24.462c5.888-6.827 13.141-12.146 21.76-15.929s18.83-5.689 30.578-5.689c16.697 0 30.521 4.181 41.529 12.516s18.119 20.764 21.333 37.262z" />
<glyph unicode="&#xe93f;" horiz-adv-x="683" d="M341.333 957.44c-186.88 0-338.773-151.893-338.773-338.773s151.893-338.773 338.773-338.773 338.773 151.893 338.773 338.773-151.893 338.773-338.773 338.773zM526.507 720.213c8.96 0 16.213-7.253 16.213-16.213s-7.253-16.213-16.213-16.213c-8.96 0-16.213 7.253-16.213 16.213s7.253 16.213 16.213 16.213zM156.16 720.213c8.96 0 16.213-7.253 16.213-16.213s-7.253-16.213-16.213-16.213-16.213 7.253-16.213 16.213 7.253 16.213 16.213 16.213zM543.573 416.427h-404.48v17.067c0 111.787 90.453 202.24 202.24 202.24s202.24-90.453 202.24-202.24v-17.067z" />
<glyph unicode="&#xe940;" horiz-adv-x="683" d="M129.564 167.538v-203.093h24.178v19.627h0.569c2.645-4.352 5.916-8.021 9.813-10.951s8.021-5.262 12.373-6.969c4.352-1.707 8.761-2.93 13.227-3.698s8.476-1.138 12.089-1.138c11.179 0 20.992 1.991 29.44 5.973s15.445 9.444 21.049 16.356 9.756 15.019 12.516 24.32c2.759 9.301 4.124 19.143 4.124 29.582s-1.422 20.281-4.267 29.582c-2.844 9.301-7.054 17.493-12.658 24.604s-12.601 12.743-21.049 16.924-18.347 6.258-29.724 6.258c-10.24 0-19.627-1.849-28.16-5.547s-14.791-9.614-18.773-17.778h-0.569v75.947h-24.178zM243.342 39.253c0-7.196-0.768-14.222-2.276-21.049s-3.982-12.885-7.396-18.204-7.908-9.586-13.511-12.8c-5.604-3.214-12.572-4.836-20.907-4.836s-15.445 1.564-21.333 4.693c-5.888 3.129-10.667 7.253-14.364 12.373s-6.4 11.036-8.107 17.778c-1.707 6.741-2.56 13.71-2.56 20.907 0 6.827 0.796 13.568 2.418 20.196s4.21 12.572 7.822 17.778c3.612 5.205 8.249 9.444 13.938 12.658s12.601 4.836 20.764 4.836c7.765 0 14.564-1.508 20.338-4.551s10.524-7.111 14.222-12.231c3.698-5.12 6.457-10.951 8.249-17.493s2.702-13.227 2.702-20.053zM427.662-34.987c-4.181-2.475-9.956-3.698-17.351-3.698-6.258 0-11.236 1.764-14.933 5.262s-5.547 9.244-5.547 17.209c-6.628-7.964-14.364-13.71-23.182-17.209s-18.347-5.262-28.587-5.262c-6.628 0-12.942 0.768-18.916 2.276s-11.15 3.897-15.502 7.111c-4.352 3.214-7.822 7.452-10.382 12.658s-3.84 11.52-3.84 18.916c0 8.334 1.422 15.161 4.267 20.48s6.599 9.614 11.236 12.942c4.636 3.328 9.956 5.831 15.929 7.538s12.089 3.129 18.347 4.267c6.628 1.337 12.942 2.332 18.916 2.987s11.236 1.621 15.787 2.844 8.164 3.044 10.809 5.404c2.645 2.361 3.982 5.831 3.982 10.382 0 5.319-0.996 9.586-2.987 12.8s-4.551 5.689-7.68 7.396c-3.129 1.707-6.628 2.844-10.524 3.413s-7.737 0.853-11.52 0.853c-10.24 0-18.773-1.934-25.6-5.831s-10.524-11.236-11.093-22.044h-24.178c0.37 9.102 2.276 16.782 5.689 23.040s7.964 11.321 13.653 15.218c5.689 3.897 12.174 6.684 19.484 8.391s15.132 2.56 23.467 2.56c6.628 0 13.227-0.484 19.769-1.422s12.459-2.901 17.778-5.831 9.586-7.054 12.8-12.373c3.214-5.319 4.836-12.231 4.836-20.764v-75.662c0-5.689 0.341-9.87 0.996-12.516s2.901-3.982 6.684-3.982c2.076 0 4.551 0.484 7.396 1.422v-18.773zM388.409 40.391c-3.044-2.276-7.026-3.925-11.947-4.978s-10.098-1.906-15.502-2.56c-5.404-0.654-10.866-1.422-16.356-2.276s-10.439-2.219-14.791-4.124c-4.352-1.906-7.908-4.608-10.667-8.107s-4.124-8.306-4.124-14.364c0-3.982 0.796-7.339 2.418-10.098s3.698-4.978 6.258-6.684 5.547-2.93 8.96-3.698c3.413-0.768 7.026-1.138 10.809-1.138 7.964 0 14.791 1.081 20.48 3.271s10.325 4.921 13.938 8.249 6.258 6.912 7.964 10.809c1.707 3.897 2.56 7.538 2.56 10.951v24.747zM467.769 36.693c0 7.196 0.768 14.222 2.276 21.049s3.982 12.885 7.396 18.204 7.964 9.586 13.653 12.8c5.689 3.214 12.601 4.836 20.764 4.836 8.334 0 15.445-1.564 21.333-4.693s10.667-7.253 14.364-12.373c3.698-5.12 6.4-11.036 8.107-17.778s2.56-13.71 2.56-20.907c0-6.827-0.796-13.568-2.418-20.196s-4.21-12.572-7.822-17.778-8.249-9.444-13.938-12.658-12.601-4.836-20.764-4.836c-7.765 0-14.564 1.508-20.338 4.551s-10.524 7.111-14.222 12.231-6.457 10.951-8.249 17.493c-1.792 6.542-2.702 13.227-2.702 20.053zM581.547-35.556v203.093h-24.178v-75.662h-0.569c-2.645 4.352-5.916 8.021-9.813 10.951s-8.021 5.319-12.373 7.111-8.732 3.072-13.084 3.84c-4.352 0.768-8.448 1.138-12.231 1.138-11.179 0-20.992-2.048-29.44-6.116s-15.445-9.586-21.049-16.498c-5.604-6.912-9.756-15.019-12.516-24.32s-4.124-19.143-4.124-29.582 1.422-20.281 4.267-29.582 7.054-17.436 12.658-24.462c5.604-7.026 12.601-12.601 21.049-16.782s18.347-6.258 29.724-6.258c10.24 0 19.627 1.792 28.16 5.404s14.791 9.472 18.773 17.636h0.569v-19.911h24.178z" />
<glyph unicode="&#xe941;" horiz-adv-x="647" d="M323.368 957.575c-177.044 0-320.943-143.899-320.943-320.943s143.899-320.943 320.943-320.943 320.943 143.899 320.943 320.943-143.899 320.943-320.943 320.943zM498.796 732.834c8.488 0 15.36-6.872 15.36-15.36s-6.872-15.36-15.36-15.36c-8.488 0-15.36 6.872-15.36 15.36s6.872 15.36 15.36 15.36zM147.941 732.834c8.488 0 15.36-6.872 15.36-15.36s-6.872-15.36-15.36-15.36-15.36 6.872-15.36 15.36 6.872 15.36 15.36 15.36zM323.368 445.036c-105.903 0-191.596 85.693-191.596 191.596 0 8.893 7.276 16.168 16.168 16.168s16.168-7.276 16.168-16.168c0-88.118 71.141-159.259 159.259-159.259s159.259 71.141 159.259 159.259c0 8.893 7.276 16.168 16.168 16.168s16.168-7.276 16.168-16.168c0-105.903-85.693-191.596-191.596-191.596z" />
<glyph unicode="&#xe942;" glyph-name="mission-bad1" horiz-adv-x="683" d="M341.333 957.44c-186.88 0-338.773-151.893-338.773-338.773s151.893-338.773 338.773-338.773c186.88 0 338.773 151.893 338.773 338.773s-151.893 338.773-338.773 338.773zM341.333 314.027c-168.107 0-304.64 136.533-304.64 304.64s136.533 304.64 304.64 304.64c168.107 0 304.64-136.533 304.64-304.64s-136.533-304.64-304.64-304.64zM172.373 704c0-8.954-7.259-16.213-16.213-16.213s-16.213 7.259-16.213 16.213c0 8.954 7.259 16.213 16.213 16.213s16.213-7.259 16.213-16.213zM542.72 704c0-8.954-7.259-16.213-16.213-16.213s-16.213 7.259-16.213 16.213c0 8.954 7.259 16.213 16.213 16.213s16.213-7.259 16.213-16.213zM341.333 635.733c-111.787 0-202.24-90.453-202.24-202.24v-17.067h404.48v17.067c0 111.787-90.453 202.24-202.24 202.24zM174.080 450.56c8.533 84.48 80.213 151.040 167.253 151.040s158.72-66.56 167.253-151.040h-334.507zM129.564 167.538v-203.093h24.178v19.627h0.569c2.655-4.362 5.926-8.012 9.813-10.951s8.012-5.262 12.373-6.969c4.362-1.707 8.77-2.939 13.227-3.698s8.486-1.138 12.089-1.138c11.188 0 21.001 1.991 29.44 5.973s15.455 9.434 21.049 16.356c5.594 6.922 9.766 15.028 12.516 24.32s4.124 19.153 4.124 29.582c0 10.43-1.422 20.29-4.267 29.582s-7.064 17.493-12.658 24.604c-5.594 7.111-12.61 12.753-21.049 16.924s-18.347 6.258-29.724 6.258c-10.24 0-19.627-1.849-28.16-5.547s-14.791-9.624-18.773-17.778h-0.569v75.947h-24.178zM243.342 39.253c0-7.206-0.759-14.222-2.276-21.049s-3.982-12.895-7.396-18.204c-3.413-5.31-7.917-9.576-13.511-12.8s-12.563-4.836-20.907-4.836c-8.344 0-15.455 1.564-21.333 4.693s-10.667 7.253-14.364 12.373c-3.698 5.12-6.4 11.046-8.107 17.778s-2.56 13.701-2.56 20.907c0 6.827 0.806 13.558 2.418 20.196s4.219 12.563 7.822 17.778c3.603 5.215 8.249 9.434 13.938 12.658s12.61 4.836 20.764 4.836c7.775 0 14.554-1.517 20.338-4.551s10.524-7.111 14.222-12.231c3.698-5.12 6.447-10.951 8.249-17.493s2.702-13.227 2.702-20.053zM427.662-34.987c-4.172-2.465-9.956-3.698-17.351-3.698-6.258 0-11.236 1.754-14.933 5.262s-5.547 9.244-5.547 17.209c-6.637-7.964-14.364-13.701-23.182-17.209s-18.347-5.262-28.587-5.262c-6.637 0-12.942 0.759-18.916 2.276s-11.141 3.887-15.502 7.111c-4.362 3.224-7.822 7.443-10.382 12.658s-3.84 11.52-3.84 18.916c0 8.344 1.422 15.17 4.267 20.48s6.59 9.624 11.236 12.942c4.646 3.319 9.956 5.831 15.929 7.538s12.089 3.129 18.347 4.267c6.637 1.327 12.942 2.323 18.916 2.987s11.236 1.612 15.787 2.844c4.551 1.233 8.154 3.034 10.809 5.404s3.982 5.831 3.982 10.382c0 5.31-0.996 9.576-2.987 12.8s-4.551 5.689-7.68 7.396c-3.129 1.707-6.637 2.844-10.524 3.413s-7.727 0.853-11.52 0.853c-10.24 0-18.773-1.944-25.6-5.831s-10.524-11.236-11.093-22.044h-24.178c0.379 9.102 2.276 16.782 5.689 23.040s7.964 11.33 13.653 15.218c5.689 3.887 12.184 6.684 19.484 8.391s15.123 2.56 23.467 2.56c6.637 0 13.227-0.474 19.769-1.422s12.468-2.892 17.778-5.831c5.31-2.939 9.576-7.064 12.8-12.373s4.836-12.231 4.836-20.764v-75.662c0-5.689 0.332-9.861 0.996-12.516s2.892-3.982 6.684-3.982c2.086 0 4.551 0.474 7.396 1.422v-18.773zM388.409 40.391c-3.034-2.276-7.016-3.935-11.947-4.978s-10.098-1.896-15.502-2.56c-5.404-0.664-10.856-1.422-16.356-2.276s-10.43-2.228-14.791-4.124c-4.362-1.896-7.917-4.599-10.667-8.107s-4.124-8.296-4.124-14.364c0-3.982 0.806-7.348 2.418-10.098s3.698-4.978 6.258-6.684c2.56-1.707 5.547-2.939 8.96-3.698s7.016-1.138 10.809-1.138c7.964 0 14.791 1.090 20.48 3.271s10.335 4.93 13.938 8.249c3.603 3.319 6.258 6.921 7.964 10.809s2.56 7.538 2.56 10.951v24.747zM467.769 36.693c0 7.206 0.759 14.222 2.276 21.049s3.982 12.895 7.396 18.204c3.413 5.31 7.964 9.576 13.653 12.8s12.61 4.836 20.764 4.836c8.344 0 15.455-1.564 21.333-4.693s10.667-7.253 14.364-12.373c3.698-5.12 6.4-11.046 8.107-17.778s2.56-13.701 2.56-20.907c0-6.827-0.806-13.558-2.418-20.196s-4.219-12.563-7.822-17.778c-3.603-5.215-8.249-9.434-13.938-12.658s-12.61-4.836-20.764-4.836c-7.775 0-14.554 1.517-20.338 4.551s-10.524 7.111-14.222 12.231c-3.698 5.12-6.447 10.951-8.249 17.493s-2.702 13.227-2.702 20.053zM581.547-35.556v203.093h-24.178v-75.662h-0.569c-2.655 4.362-5.926 8.012-9.813 10.951s-8.012 5.31-12.373 7.111c-4.362 1.801-8.723 3.081-13.084 3.84s-8.438 1.138-12.231 1.138c-11.188 0-21.001-2.038-29.44-6.116s-15.455-9.576-21.049-16.498c-5.594-6.922-9.766-15.028-12.516-24.32s-4.124-19.153-4.124-29.582c0-10.43 1.422-20.29 4.267-29.582s7.064-17.446 12.658-24.462c5.594-7.016 12.61-12.61 21.049-16.782s18.347-6.258 29.724-6.258c10.24 0 19.627 1.801 28.16 5.404s14.791 9.481 18.773 17.636h0.569v-19.911h24.178z" />
<glyph unicode="&#xe943;" horiz-adv-x="647" d="M162.358 28.699v127.461h-21.558v-19.941h-0.269c-4.123 7.734-9.89 13.528-17.246 17.381s-15.441 5.794-24.253 5.794c-12.045 0-22.178-2.291-30.451-6.872s-14.902-10.429-19.941-17.516-8.623-15.010-10.779-23.714c-2.156-8.704-3.234-17.192-3.234-25.465 0-9.512 1.293-18.54 3.907-27.082s6.521-15.98 11.722-22.366 11.668-11.453 19.402-15.225 16.788-5.659 27.217-5.659c8.973 0 17.462 2.021 25.465 6.063s13.959 10.375 17.92 18.998h0.539v-9.162c0-7.734-0.755-14.821-2.291-21.288s-3.988-11.992-7.411-16.573c-3.422-4.581-7.734-8.165-12.935-10.779s-11.587-3.907-19.133-3.907c-3.773 0-7.734 0.404-11.857 1.213s-7.949 2.102-11.453 3.907c-3.503 1.805-6.467 4.123-8.893 7.006s-3.719 6.387-3.907 10.509h-22.905c0.35-7.545 2.344-13.932 5.928-19.133s8.138-9.432 13.608-12.665 11.587-5.578 18.324-7.006c6.737-1.428 13.339-2.156 19.806-2.156 22.285 0 38.616 5.659 49.044 16.977s15.629 28.376 15.629 51.2zM98.223 35.436c-7.545 0-13.824 1.563-18.863 4.716s-9.081 7.276-12.126 12.396c-3.045 5.12-5.201 10.833-6.467 17.112s-1.886 12.584-1.886 18.863c0 6.656 0.755 13.016 2.291 19.133s3.961 11.507 7.276 16.168 7.599 8.408 12.8 11.183c5.201 2.776 11.507 4.177 18.863 4.177 7.195 0 13.285-1.428 18.324-4.312s9.108-6.683 12.261-11.453 5.443-10.105 6.872-16.034 2.156-11.938 2.156-18.055c0-6.467-0.755-12.935-2.291-19.402s-3.907-12.261-7.141-17.381c-3.234-5.12-7.491-9.243-12.8-12.396s-11.722-4.716-19.267-4.716zM213.558 86.366c0 8.435 1.132 15.953 3.368 22.501s5.336 12.072 9.297 16.573c3.961 4.5 8.569 7.896 13.878 10.24s10.914 3.503 16.842 3.503 11.533-1.159 16.842-3.503c5.309-2.344 9.917-5.74 13.878-10.24s7.060-10.024 9.297-16.573c2.237-6.548 3.368-14.067 3.368-22.501s-1.132-15.953-3.368-22.501c-2.237-6.548-5.336-12.045-9.297-16.438s-8.569-7.761-13.878-10.105c-5.309-2.344-10.914-3.503-16.842-3.503s-11.533 1.159-16.842 3.503c-5.309 2.344-9.917 5.713-13.878 10.105s-7.060 9.89-9.297 16.438c-2.237 6.548-3.368 14.067-3.368 22.501zM189.305 86.366c0-10.24 1.428-19.752 4.312-28.564s7.195-16.492 12.935-23.040c5.74-6.548 12.854-11.668 21.288-15.36s18.136-5.524 29.103-5.524c11.129 0 20.884 1.832 29.238 5.524s15.414 8.812 21.154 15.36c5.74 6.548 10.051 14.228 12.935 23.040s4.312 18.324 4.312 28.564c0 10.24-1.428 19.806-4.312 28.699s-7.195 16.627-12.935 23.175c-5.74 6.548-12.8 11.722-21.154 15.495s-18.109 5.659-29.238 5.659c-10.968 0-20.669-1.886-29.103-5.659s-15.549-8.947-21.288-15.495c-5.74-6.548-10.051-14.282-12.935-23.175s-4.312-18.459-4.312-28.699zM368.236 86.366c0 8.435 1.132 15.953 3.368 22.501s5.336 12.072 9.297 16.573c3.961 4.5 8.569 7.896 13.878 10.24s10.914 3.503 16.842 3.503c5.928 0 11.533-1.159 16.842-3.503s9.917-5.74 13.878-10.24c3.961-4.5 7.060-10.024 9.297-16.573s3.368-14.067 3.368-22.501c0-8.435-1.132-15.953-3.368-22.501s-5.336-12.045-9.297-16.438c-3.961-4.392-8.569-7.761-13.878-10.105s-10.914-3.503-16.842-3.503c-5.928 0-11.533 1.159-16.842 3.503s-9.917 5.713-13.878 10.105-7.060 9.89-9.297 16.438c-2.237 6.548-3.368 14.067-3.368 22.501zM343.983 86.366c0-10.24 1.428-19.752 4.312-28.564s7.195-16.492 12.935-23.040c5.74-6.548 12.854-11.668 21.288-15.36s18.136-5.524 29.103-5.524c11.129 0 20.884 1.832 29.238 5.524s15.414 8.812 21.154 15.36c5.74 6.548 10.051 14.228 12.935 23.040s4.312 18.324 4.312 28.564c0 10.24-1.428 19.806-4.312 28.699s-7.195 16.627-12.935 23.175c-5.74 6.548-12.8 11.722-21.154 15.495s-18.109 5.659-29.238 5.659c-10.968 0-20.669-1.886-29.103-5.659s-15.549-8.947-21.288-15.495c-5.74-6.548-10.051-14.282-12.935-23.175s-4.312-18.459-4.312-28.699zM522.914 85.288c0 6.818 0.728 13.474 2.156 19.941s3.773 12.207 7.006 17.246c3.234 5.039 7.545 9.081 12.935 12.126s11.938 4.581 19.672 4.581c7.896 0 14.632-1.482 20.211-4.446s10.105-6.872 13.608-11.722c3.503-4.851 6.063-10.456 7.68-16.842s2.425-12.989 2.425-19.806c0-6.467-0.755-12.854-2.291-19.133s-3.988-11.911-7.411-16.842-7.815-8.947-13.204-11.992-11.938-4.581-19.672-4.581c-7.357 0-13.797 1.428-19.267 4.312s-9.971 6.737-13.474 11.587c-3.503 4.851-6.117 10.375-7.815 16.573s-2.56 12.531-2.56 18.998zM630.703 16.842v192.404h-22.905v-71.68h-0.539c-2.506 4.123-5.605 7.599-9.297 10.375s-7.599 5.039-11.722 6.737c-4.123 1.698-8.273 2.91-12.396 3.638s-8.003 1.078-11.587 1.078c-10.59 0-19.887-1.94-27.891-5.794s-14.632-9.081-19.941-15.629c-5.309-6.548-9.243-14.228-11.857-23.040s-3.907-18.136-3.907-28.025 1.347-19.213 4.042-28.025 6.683-16.519 11.992-23.175c5.309-6.656 11.938-11.938 19.941-15.899s17.381-5.928 28.16-5.928c9.701 0 18.594 1.698 26.678 5.12s14.013 8.973 17.785 16.707h0.539v-18.863h22.905z" />
<glyph unicode="&#xe944;" horiz-adv-x="683" d="M68.551 111.502v-147.058h24.178v91.591c0 2.844 0.711 6.4 2.133 10.667s3.698 8.391 6.827 12.373c3.129 3.982 7.196 7.396 12.231 10.24s11.036 4.267 18.062 4.267c5.49 0 10.012-0.796 13.511-2.418s6.315-3.897 8.391-6.827 3.556-6.4 4.409-10.382c0.853-3.982 1.28-8.334 1.28-13.084v-96.427h24.178v91.591c0 11.378 3.413 20.48 10.24 27.307s16.213 10.24 28.16 10.24c5.888 0 10.667-0.853 14.364-2.56s6.599-4.039 8.676-6.969 3.499-6.4 4.267-10.382c0.768-3.982 1.138-8.249 1.138-12.8v-96.427h24.178v107.804c0 7.595-1.195 14.080-3.556 19.484s-5.689 9.813-9.956 13.227c-4.267 3.413-9.387 5.916-15.36 7.538s-12.658 2.418-20.053 2.418c-9.671 0-18.546-2.19-26.596-6.542s-14.564-10.524-19.484-18.489c-3.044 9.102-8.249 15.559-15.644 19.342s-15.644 5.689-24.747 5.689c-20.679 0-36.494-8.334-47.502-25.031h-0.569v21.618h-22.756zM413.298 52.053h-84.48c0.37 5.689 1.621 11.036 3.698 16.071s4.921 9.444 8.533 13.227c3.612 3.783 7.908 6.77 12.942 8.96s10.667 3.271 16.924 3.271c6.059 0 11.605-1.081 16.64-3.271s9.387-5.12 13.084-8.818 6.628-8.107 8.818-13.227c2.19-5.12 3.47-10.524 3.84-16.213zM436.622 11.093h-23.893c-2.076-9.671-6.4-16.868-12.942-21.618s-14.933-7.111-25.173-7.111c-7.964 0-14.876 1.337-20.764 3.982s-10.724 6.201-14.507 10.667c-3.783 4.466-6.542 9.586-8.249 15.36s-2.475 11.89-2.276 18.347h110.080c0.37 8.903-0.427 18.29-2.418 28.16s-5.604 18.972-10.809 27.307-12.146 15.218-20.764 20.622c-8.619 5.404-19.484 8.107-32.569 8.107-10.041 0-19.285-1.906-27.733-5.689s-15.73-9.102-21.902-15.929c-6.172-6.827-10.951-14.876-14.364-24.178s-5.12-19.541-5.12-30.72c0.37-11.179 2.048-21.532 4.978-31.004s7.339-17.636 13.227-24.462c5.888-6.827 13.141-12.146 21.76-15.929s18.83-5.689 30.578-5.689c16.697 0 30.521 4.181 41.529 12.516s18.119 20.764 21.333 37.262zM463.929 167.538v-203.093h24.178v83.058c0 6.628 0.91 12.743 2.702 18.347s4.494 10.468 8.107 14.649c3.612 4.181 8.107 7.396 13.511 9.671s11.804 3.413 19.2 3.413c9.301 0 16.583-2.645 21.902-7.964s7.964-12.516 7.964-21.618v-99.556h24.178v96.711c0 7.964-0.796 15.218-2.418 21.76s-4.409 12.174-8.391 16.924c-3.982 4.75-9.188 8.448-15.644 11.093s-14.507 3.982-24.178 3.982c-4.352 0-8.875-0.484-13.511-1.422s-9.102-2.418-13.369-4.409c-4.267-1.991-8.107-4.551-11.52-7.68s-6.059-6.969-7.964-11.52h-0.569v77.653h-24.178z" />
<glyph unicode="&#xe945;" horiz-adv-x="683" d="M341.333 957.44c-186.88 0-338.773-151.893-338.773-338.773s151.893-338.773 338.773-338.773 338.773 151.893 338.773 338.773-151.893 338.773-338.773 338.773zM526.507 720.213c8.96 0 16.213-7.253 16.213-16.213s-7.253-16.213-16.213-16.213c-8.96 0-16.213 7.253-16.213 16.213s7.253 16.213 16.213 16.213zM156.16 720.213c8.96 0 16.213-7.253 16.213-16.213s-7.253-16.213-16.213-16.213-16.213 7.253-16.213 16.213 7.253 16.213 16.213 16.213zM526.507 601.6h-370.347c-9.387 0-17.067 7.68-17.067 17.067s7.68 17.067 17.067 17.067h370.347c9.387 0 17.067-7.68 17.067-17.067s-7.68-17.067-17.067-17.067z" />
<glyph unicode="&#xe946;" horiz-adv-x="996" d="M483.556 957.44c-186.88 0-338.773-151.893-338.773-338.773s151.893-338.773 338.773-338.773 338.773 151.893 338.773 338.773-151.893 338.773-338.773 338.773zM298.382 720.213c8.96 0 16.213-7.253 16.213-16.213s-7.253-16.213-16.213-16.213-16.213 7.253-16.213 16.213 7.253 16.213 16.213 16.213zM312.036 624.64c0-7.68-5.973-13.653-13.653-13.653s-13.653 5.973-13.653 13.653c0 9.387 13.653 41.813 13.653 41.813s13.653-32.427 13.653-41.813zM663.609 418.133c-9.387 0-17.067 7.68-17.067 17.067 0 93.013-75.093 168.107-168.107 168.107s-168.107-75.093-168.107-168.107c0-9.387-7.68-17.067-17.067-17.067s-17.067 7.68-17.067 17.067c0 111.787 90.453 202.24 202.24 202.24s202.24-91.307 202.24-202.24c0-9.387-7.68-17.067-17.067-17.067zM668.729 687.787c-8.96 0-16.213 7.253-16.213 16.213s7.253 16.213 16.213 16.213c8.96 0 16.213-7.253 16.213-16.213s-7.253-16.213-16.213-16.213z" />
<glyph unicode="&#xe947;" horiz-adv-x="996" d="M56.889 111.502v44.089h-24.178v-44.089h-25.031v-21.333h25.031v-93.582c0-6.827 0.654-12.316 1.991-16.498s3.356-7.396 6.116-9.671c2.759-2.276 6.343-3.84 10.809-4.693s9.813-1.28 16.071-1.28h18.489v21.333h-11.093c-3.783 0-6.884 0.142-9.244 0.427s-4.21 0.91-5.547 1.849c-1.337 0.939-2.219 2.276-2.702 3.982s-0.711 3.982-0.711 6.827v91.307h29.298v21.333h-29.298zM130.56 37.831c0 8.903 1.195 16.839 3.556 23.751s5.632 12.743 9.813 17.493c4.181 4.75 9.045 8.334 14.649 10.809s11.52 3.698 17.778 3.698c6.258 0 12.174-1.223 17.778-3.698s10.468-6.059 14.649-10.809c4.181-4.75 7.452-10.581 9.813-17.493s3.556-14.848 3.556-23.751c0-8.903-1.195-16.839-3.556-23.751s-5.632-12.715-9.813-17.351-9.045-8.192-14.649-10.667c-5.604-2.475-11.52-3.698-17.778-3.698s-12.174 1.223-17.778 3.698c-5.604 2.475-10.468 6.030-14.649 10.667s-7.452 10.439-9.813 17.351c-2.361 6.912-3.556 14.848-3.556 23.751zM104.96 37.831c0-10.809 1.508-20.85 4.551-30.151s7.595-17.408 13.653-24.32c6.059-6.912 13.568-12.316 22.471-16.213s19.143-5.831 30.72-5.831c11.748 0 22.044 1.934 30.862 5.831s16.27 9.301 22.329 16.213c6.059 6.912 10.61 15.019 13.653 24.32s4.551 19.342 4.551 30.151c0 10.809-1.508 20.907-4.551 30.293s-7.595 17.55-13.653 24.462c-6.059 6.912-13.511 12.373-22.329 16.356s-19.115 5.973-30.862 5.973c-11.577 0-21.817-1.991-30.72-5.973s-16.412-9.444-22.471-16.356c-6.059-6.912-10.61-15.076-13.653-24.462s-4.551-19.484-4.551-30.293zM293.831 37.831c0 8.903 1.195 16.839 3.556 23.751s5.632 12.743 9.813 17.493c4.181 4.75 9.045 8.334 14.649 10.809s11.52 3.698 17.778 3.698c6.258 0 12.174-1.223 17.778-3.698s10.468-6.059 14.649-10.809c4.181-4.75 7.452-10.581 9.813-17.493s3.556-14.848 3.556-23.751c0-8.903-1.195-16.839-3.556-23.751s-5.632-12.715-9.813-17.351-9.045-8.192-14.649-10.667c-5.604-2.475-11.52-3.698-17.778-3.698s-12.174 1.223-17.778 3.698c-5.604 2.475-10.468 6.030-14.649 10.667s-7.452 10.439-9.813 17.351c-2.361 6.912-3.556 14.848-3.556 23.751zM268.231 37.831c0-10.809 1.508-20.85 4.551-30.151s7.595-17.408 13.653-24.32c6.059-6.912 13.568-12.316 22.471-16.213s19.143-5.831 30.72-5.831c11.748 0 22.044 1.934 30.862 5.831s16.27 9.301 22.329 16.213c6.059 6.912 10.61 15.019 13.653 24.32s4.551 19.342 4.551 30.151c0 10.809-1.508 20.907-4.551 30.293s-7.595 17.55-13.653 24.462c-6.059 6.912-13.511 12.373-22.329 16.356s-19.115 5.973-30.862 5.973c-11.577 0-21.817-1.991-30.72-5.973s-16.412-9.444-22.471-16.356c-6.059-6.912-10.61-15.076-13.653-24.462s-4.551-19.484-4.551-30.293zM519.396 167.538v-203.093h24.178v19.627h0.569c2.645-4.352 5.916-8.021 9.813-10.951s8.021-5.262 12.373-6.969c4.352-1.707 8.761-2.93 13.227-3.698s8.476-1.138 12.089-1.138c11.179 0 20.992 1.991 29.44 5.973s15.445 9.444 21.049 16.356c5.604 6.912 9.756 15.019 12.516 24.32s4.124 19.143 4.124 29.582-1.422 20.281-4.267 29.582c-2.844 9.301-7.054 17.493-12.658 24.604s-12.601 12.743-21.049 16.924c-8.448 4.181-18.347 6.258-29.724 6.258-10.24 0-19.627-1.849-28.16-5.547s-14.791-9.614-18.773-17.778h-0.569v75.947h-24.178zM633.173 39.253c0-7.196-0.768-14.222-2.276-21.049s-3.982-12.885-7.396-18.204-7.908-9.586-13.511-12.8c-5.604-3.214-12.572-4.836-20.907-4.836s-15.445 1.564-21.333 4.693c-5.888 3.129-10.667 7.253-14.364 12.373s-6.4 11.036-8.107 17.778-2.56 13.71-2.56 20.907c0 6.827 0.796 13.568 2.418 20.196s4.21 12.572 7.822 17.778 8.249 9.444 13.938 12.658c5.689 3.214 12.601 4.836 20.764 4.836 7.765 0 14.564-1.508 20.338-4.551s10.524-7.111 14.222-12.231c3.698-5.12 6.457-10.951 8.249-17.493s2.702-13.227 2.702-20.053zM817.493-34.987c-4.181-2.475-9.956-3.698-17.351-3.698-6.258 0-11.236 1.764-14.933 5.262s-5.547 9.244-5.547 17.209c-6.628-7.964-14.364-13.71-23.182-17.209s-18.347-5.262-28.587-5.262c-6.628 0-12.942 0.768-18.916 2.276s-11.15 3.897-15.502 7.111c-4.352 3.214-7.822 7.452-10.382 12.658s-3.84 11.52-3.84 18.916c0 8.334 1.422 15.161 4.267 20.48s6.599 9.614 11.236 12.942c4.636 3.328 9.956 5.831 15.929 7.538s12.089 3.129 18.347 4.267c6.628 1.337 12.942 2.332 18.916 2.987s11.236 1.621 15.787 2.844c4.551 1.223 8.164 3.044 10.809 5.404s3.982 5.831 3.982 10.382c0 5.319-0.996 9.586-2.987 12.8s-4.551 5.689-7.68 7.396c-3.129 1.707-6.628 2.844-10.524 3.413s-7.737 0.853-11.52 0.853c-10.24 0-18.773-1.934-25.6-5.831s-10.524-11.236-11.093-22.044h-24.178c0.37 9.102 2.276 16.782 5.689 23.040s7.964 11.321 13.653 15.218 12.174 6.684 19.484 8.391c7.31 1.707 15.132 2.56 23.467 2.56 6.628 0 13.227-0.484 19.769-1.422s12.459-2.901 17.778-5.831 9.586-7.054 12.8-12.373c3.214-5.319 4.836-12.231 4.836-20.764v-75.662c0-5.689 0.341-9.87 0.996-12.516s2.901-3.982 6.684-3.982c2.076 0 4.551 0.484 7.396 1.422v-18.773zM778.24 40.391c-3.044-2.276-7.026-3.925-11.947-4.978s-10.098-1.906-15.502-2.56c-5.404-0.654-10.866-1.422-16.356-2.276s-10.439-2.219-14.791-4.124c-4.352-1.906-7.908-4.608-10.667-8.107s-4.124-8.306-4.124-14.364c0-3.982 0.796-7.339 2.418-10.098s3.698-4.978 6.258-6.684c2.56-1.707 5.547-2.93 8.96-3.698s7.026-1.138 10.809-1.138c7.964 0 14.791 1.081 20.48 3.271s10.325 4.921 13.938 8.249 6.258 6.912 7.964 10.809c1.707 3.897 2.56 7.538 2.56 10.951v24.747zM857.6 36.693c0 7.196 0.768 14.222 2.276 21.049s3.982 12.885 7.396 18.204 7.964 9.586 13.653 12.8c5.689 3.214 12.601 4.836 20.764 4.836 8.334 0 15.445-1.564 21.333-4.693s10.667-7.253 14.364-12.373c3.698-5.12 6.4-11.036 8.107-17.778s2.56-13.71 2.56-20.907c0-6.827-0.796-13.568-2.418-20.196s-4.21-12.572-7.822-17.778-8.249-9.444-13.938-12.658-12.601-4.836-20.764-4.836c-7.765 0-14.564 1.508-20.338 4.551s-10.524 7.111-14.222 12.231-6.457 10.951-8.249 17.493c-1.792 6.542-2.702 13.227-2.702 20.053zM971.378-35.556v203.093h-24.178v-75.662h-0.569c-2.645 4.352-5.916 8.021-9.813 10.951s-8.021 5.319-12.373 7.111-8.732 3.072-13.084 3.84c-4.352 0.768-8.448 1.138-12.231 1.138-11.179 0-20.992-2.048-29.44-6.116s-15.445-9.586-21.049-16.498c-5.604-6.912-9.756-15.019-12.516-24.32s-4.124-19.143-4.124-29.582 1.422-20.281 4.267-29.582 7.054-17.436 12.658-24.462c5.604-7.026 12.601-12.601 21.049-16.782s18.347-6.258 29.724-6.258c10.24 0 19.627 1.792 28.16 5.404s14.791 9.472 18.773 17.636h0.569v-19.911h24.178z" />
</font>
</defs>
</svg>
