<svg width="275px" height="275px" viewBox="0 0 275 275" version="1.1" xmlns="http://www.w3.org/2000/svg" xmlns:xlink="http://www.w3.org/1999/xlink">
    <defs></defs>
    <g id="Symbols" stroke="none" stroke-width="1" fill="none" fill-rule="evenodd">
        <g id="bi-logo-svg" transform="translate(-119.000000, -101.000000)" fill="#FFFFFF">
            <path d="M211.881235,106.250765 C215.756179,102.318414 223.220207,100.290381 228.563954,101.724069 L270.879735,113.077084 C276.218403,114.509409 277.375953,118.840834 273.476246,122.74054 L183.114004,213.102783 C179.20935,217.007437 180.359141,221.334552 185.70008,222.772497 L244.576655,238.623883 C249.90956,240.059665 255.419834,245.544646 256.883524,250.872477 L289.172677,368.404994 C290.636669,373.733924 287.497826,376.91928 282.148963,375.5163 L163.915881,344.504344 C158.572799,343.10288 153.098463,337.628368 151.694752,332.299996 L119.949077,211.796004 C118.542616,206.457193 120.551293,198.933743 124.41866,195.009081 L211.881235,106.250765 Z M295.474138,119.764837 L349.069791,134.130682 C354.418487,135.564353 359.87514,141.049312 361.281601,146.388123 L393.027277,266.892115 C394.430988,272.220488 392.482031,279.792369 388.668018,283.78107 L303.992053,372.335323 C300.18267,376.319182 295.926464,375.237026 294.495893,369.907446 L261.3339,246.362766 C259.906823,241.046205 254.416369,235.552826 249.078433,234.122039 L195.482781,219.756194 C190.134085,218.322523 188.983405,213.999714 192.88863,210.094489 L278.737914,124.245205 C282.637315,120.345804 290.136203,118.33405 295.474138,119.764837 Z" id="BI-LOGO"></path>
        </g>
    </g>
</svg>